<svg width="137" height="27" viewBox="0 0 137 27" fill="none" xmlns="http://www.w3.org/2000/svg">
<path fill-rule="evenodd" clip-rule="evenodd" d="M4.14844 26L6.11719 20.2695H15.8379L17.8242 26H21.9199L12.6035 0.371094H9.35156L0.0351562 26H4.14844ZM14.7305 16.8242H7.24219L10.9512 5.62695H11.0215L14.7305 16.8242ZM38.1621 7.75391L31.4648 26H28.4414L21.7441 7.75391H25.6289L29.918 20.5332H29.9883L34.2598 7.75391H38.1621ZM45.3164 26.2109C46.5586 26.2109 47.5312 26.0586 48.2344 25.7539C48.9492 25.4609 49.4766 25.0039 49.8164 24.3828H49.8867V26H53.5605V13.5371C53.5371 11.3105 52.8398 9.74023 51.4688 8.82617C50.0977 7.93555 48.2637 7.50195 45.9668 7.52539C43.248 7.47852 41.1914 8.36914 39.7969 10.1973L42.6797 12.3945C42.9961 11.8672 43.4297 11.4922 43.9805 11.2695C44.5078 11.082 45.2285 10.9883 46.1426 10.9883C48.6621 10.9414 49.9102 11.7207 49.8867 13.3262V15.2422H44.8066C42.8613 15.2656 41.3848 15.793 40.377 16.8242C39.3691 17.832 38.8652 19.1035 38.8652 20.6387C38.8652 22.2441 39.4453 23.5625 40.6055 24.5938C41.707 25.6484 43.2773 26.1875 45.3164 26.2109ZM43.1543 22.0449C43.6816 22.5254 44.5547 22.7656 45.7734 22.7656C47.3086 22.7891 48.3926 22.6074 49.0254 22.2207C49.5996 21.834 49.8867 20.9551 49.8867 19.584V18.2656H45.4922C43.3594 18.3125 42.3047 19.0449 42.3281 20.4629C42.3281 21.084 42.6035 21.6113 43.1543 22.0449ZM62.0859 4.04492V0.371094H58.4121V4.04492H62.0859ZM62.0859 7.75391V26H58.4121V7.75391H62.0859ZM73.248 26V22.5371H71.9824C71.0684 22.5371 70.6113 22.1211 70.6113 21.2891V0.371094H66.9375V21.5703C66.9375 23.1758 67.3945 24.3184 68.3086 24.998C69.1758 25.666 70.2773 26 71.6133 26H73.248ZM84.1465 25.7539C83.4434 26.0586 82.4707 26.2109 81.2285 26.2109C79.1895 26.1875 77.6191 25.6484 76.5176 24.5938C75.3574 23.5625 74.7773 22.2441 74.7773 20.6387C74.7773 19.1035 75.2812 17.832 76.2891 16.8242C77.2969 15.793 78.7734 15.2656 80.7188 15.2422H85.7988V13.3262C85.8223 11.7207 84.5742 10.9414 82.0547 10.9883C81.1406 10.9883 80.4199 11.082 79.8926 11.2695C79.3418 11.4922 78.9082 11.8672 78.5918 12.3945L75.709 10.1973C77.1035 8.36914 79.1602 7.47852 81.8789 7.52539C84.1758 7.50195 86.0098 7.93555 87.3809 8.82617C88.752 9.74023 89.4492 11.3105 89.4727 13.5371V26H85.7988V24.3828H85.7285C85.3887 25.0039 84.8613 25.4609 84.1465 25.7539ZM81.6855 22.7656C80.4668 22.7656 79.5938 22.5254 79.0664 22.0449C78.5156 21.6113 78.2402 21.084 78.2402 20.4629C78.2168 19.0449 79.2715 18.3125 81.4043 18.2656H85.7988V19.584C85.7988 20.9551 85.5117 21.834 84.9375 22.2207C84.3047 22.6074 83.2207 22.7891 81.6855 22.7656ZM105.521 25.5254C104.713 25.959 103.74 26.1875 102.604 26.2109C100.682 26.1641 99.1113 25.4551 97.8926 24.084V26H94.2188V0.371094H97.8926V9.6875C98.5605 9.04297 99.293 8.51562 100.09 8.10547C100.828 7.71875 101.666 7.52539 102.604 7.52539C104.842 7.58398 106.477 8.38086 107.508 9.91602C108.012 10.4902 108.357 11.2461 108.545 12.1836C108.721 13.1094 108.809 14.668 108.809 16.8594C108.809 19.0156 108.721 20.5625 108.545 21.5C108.357 22.4844 108.012 23.2637 107.508 23.8379C107.004 24.541 106.342 25.1035 105.521 25.5254ZM101.496 22.5371C100.676 22.5371 100.025 22.3613 99.5449 22.0098C99.041 21.6699 98.6719 21.2246 98.4375 20.6738C98.2148 20.123 98.0684 19.5078 97.998 18.8281C97.9277 18.1602 97.8926 17.5039 97.8926 16.8594C97.8926 16.1562 97.9277 15.4824 97.998 14.8379C98.0684 14.1934 98.2148 13.5957 98.4375 13.0449C98.6719 12.4941 99.041 12.0488 99.5449 11.709C100.025 11.3691 100.676 11.1992 101.496 11.1992C102.363 11.1992 103.049 11.3457 103.553 11.6387C104.057 11.9551 104.414 12.3887 104.625 12.9395C104.859 13.4902 105.018 14.0879 105.1 14.7324C105.123 15.4238 105.135 16.1328 105.135 16.8594C105.135 17.5508 105.123 18.2246 105.1 18.8809C105.018 19.5723 104.859 20.1934 104.625 20.7441C104.414 21.2715 104.057 21.7051 103.553 22.0449C103.049 22.373 102.363 22.5371 101.496 22.5371ZM119.215 22.5371V26H117.58C116.244 26 115.143 25.666 114.275 24.998C113.361 24.3184 112.904 23.1758 112.904 21.5703V0.371094H116.578V21.2891C116.578 22.1211 117.035 22.5371 117.949 22.5371H119.215ZM129.393 26.2109C131.912 26.2344 134.104 25.25 135.967 23.2578L133.312 20.9902C132.141 22.1738 130.811 22.7656 129.322 22.7656C128.045 22.7656 127.014 22.3789 126.229 21.6055C125.385 20.8438 124.963 19.7305 124.963 18.2656H136.336V15.2422C136.312 12.8398 135.568 10.9531 134.104 9.58203C132.662 8.23438 130.898 7.54883 128.812 7.52539C127.945 7.52539 127.066 7.68359 126.176 8C125.273 8.31641 124.459 8.83203 123.732 9.54688C123.018 10.25 122.432 11.2109 121.975 12.4297C121.518 13.625 121.289 15.125 121.289 16.9297C121.289 18.8047 121.553 20.3281 122.08 21.5C122.561 22.7188 123.188 23.668 123.961 24.3477C124.359 24.6758 124.787 24.9512 125.244 25.1738C125.678 25.4316 126.123 25.6367 126.58 25.7891C127.494 26.0703 128.432 26.2109 129.393 26.2109ZM126.105 12.0254C125.414 12.752 125.033 13.8242 124.963 15.2422H132.662C132.615 13.8242 132.234 12.752 131.52 12.0254C130.816 11.334 129.914 10.9883 128.812 10.9883C127.711 10.9883 126.809 11.334 126.105 12.0254Z" fill="#9FFFF1" fill-opacity="0.1"/>
</svg>
