<svg width="89" height="80" viewBox="0 0 89 80" fill="none" xmlns="http://www.w3.org/2000/svg">
<path fill-rule="evenodd" clip-rule="evenodd" d="M47.233 80C71.9244 68.2947 89 43.1414 89 14C89 9.21167 88.539 4.53101 87.6589 0H16C7.16344 0 0 7.16344 0 16V64C0 72.8366 7.16345 80 16 80H47.233Z" fill="url(#paint0_linear)"/>
<path fill-rule="evenodd" clip-rule="evenodd" d="M0.0704117 52.8177C0.630913 47.0669 8.68151 41.6967 17.7525 42.7057C26.8234 43.7146 33.2599 39.3655 42 38.4552C50.7401 37.5448 56.303 39.9622 63.6118 42.7057C70.9206 45.4491 75.8318 51.2305 67.6023 59.1553C59.3729 67.08 41.2438 61.3743 23 64.5961C4.75621 67.8179 -0.490089 58.5684 0.0704117 52.8177Z" fill="white" fill-opacity="0.24"/>
<path fill-rule="evenodd" clip-rule="evenodd" d="M10 18.8666L30 17.21C33.3137 16.9355 36 19.0646 36 21.9654V28.6503C36 31.5512 33.3137 34.3307 30 34.8585L10 38.0443C6.68629 38.5721 4 36.3137 4 33V25.3636C4 22.0499 6.68629 19.1411 10 18.8666Z" fill="url(#paint1_radial)"/>
<path fill-rule="evenodd" clip-rule="evenodd" d="M34.3636 35.7188C34.7653 35.6529 35.0909 35.8242 35.0909 36.1014C35.0909 36.3785 34.7653 36.6611 34.3636 36.7328L26.739 38.1429L29.3756 41.4466L27.9211 41.7953L25.285 38.4225L15.805 40.3292L13.1698 45.5626L11.7153 45.9568L14.351 40.6345L6.72727 42.2916C6.32561 42.3815 6 42.1289 6 41.7273C6 41.3256 6.32561 40.9324 6.72727 40.8493L34.3636 35.7188Z" fill="white" fill-opacity="0.6"/>
<path fill-rule="evenodd" clip-rule="evenodd" d="M20.3636 14.6867C20.9661 14.6467 21.4545 15.0507 21.4545 15.589C21.4545 15.7031 21.4326 15.8146 21.3923 15.9201L23.6364 15.7111C24.038 15.6738 24.3636 15.917 24.3636 16.2545C24.3636 16.5919 24.038 16.9044 23.6364 16.9524L16.3636 17.8222C15.962 17.8702 15.6364 17.5835 15.6364 17.1819C15.6364 16.7802 15.962 16.4243 16.3636 16.387L18.6077 16.1789C18.5674 16.0749 18.5454 15.9609 18.5454 15.84C18.5454 15.2696 19.0339 14.7748 19.6364 14.7349L20.3636 14.6867Z" fill="white" fill-opacity="0.6"/>
<path d="M19.638 29.6964C19.4582 29.9533 19.1172 30.0352 18.9048 29.8908L18.8391 29.8342L17.528 28.3973L15.228 30.541C15.0635 30.6963 14.8381 30.7471 14.6625 30.6762L14.5906 30.6382L13.031 29.5836L11.8729 31.0601C11.7094 31.2699 11.4415 31.3504 11.2393 31.2622L11.1669 31.221C10.9839 31.0895 10.9494 30.8282 11.0732 30.6058L11.1271 30.5246L12.6134 28.6332C12.7749 28.4295 13.0387 28.3528 13.2404 28.4386L13.3128 28.4784L14.93 29.5803L17.308 27.3773C17.5036 27.1986 17.7789 27.1708 17.9565 27.299L18.0182 27.3542L19.237 28.6941L21.33 25.7518C21.4759 25.5493 21.7364 25.4572 21.9476 25.5216L22.0242 25.5532L24.915 27.0472L29.127 22.2009C29.2904 22.0177 29.5583 21.9526 29.7605 22.0355L29.8329 22.0735C30.0161 22.1934 30.0506 22.4243 29.9269 22.6187L29.873 22.6896L25.3603 27.8882C25.2105 28.0655 24.9709 28.1461 24.7741 28.0943L24.6928 28.0638L21.833 26.6018L19.638 29.6964Z" fill="#31F4D8"/>
<path fill-rule="evenodd" clip-rule="evenodd" d="M10.5 33.4544L30.5 30.1321C30.7761 30.0862 31 30.2438 31 30.4841C31 30.7243 30.7761 30.9577 30.5 31.0052L10.5 34.4513C10.2239 34.4988 10 34.3136 10 34.0374C10 33.7613 10.2239 33.5002 10.5 33.4544Z" fill="#31F4D8"/>
<mask id="mask0" mask-type="alpha" maskUnits="userSpaceOnUse" x="6" y="35" width="7" height="11">
<path fill-rule="evenodd" clip-rule="evenodd" d="M6.27884 35.2317H12.3458V45.3079H6.27884V35.2317Z" fill="white"/>
</mask>
<g mask="url(#mask0)">
<path fill-rule="evenodd" clip-rule="evenodd" d="M9.36473 35.4769C11.7027 34.371 13.0961 37.2713 11.9203 38.8861C10.4854 40.8567 9.75043 43.1241 9.34112 43.8073C8.99585 44.3836 8.05003 45.7885 6.91111 45.141C5.86296 44.545 6.43423 42.2059 6.43423 42.2059C6.43423 42.2059 6.48052 36.8411 9.36473 35.4769Z" fill="url(#paint2_radial)"/>
</g>
<path fill-rule="evenodd" clip-rule="evenodd" d="M10.6886 44.772C9.78963 45.8255 8.49236 47.9448 7.67964 47.2025C7.18708 46.7527 7.84557 44.6224 9.64803 43.4634C11.1812 42.4775 11.5876 43.7185 10.6886 44.772Z" fill="url(#paint3_radial)"/>
<path fill-rule="evenodd" clip-rule="evenodd" d="M2.33255 44.6906C1.53773 43.6183 1.24752 42.0794 2.13468 41.6848C2.98526 41.3065 4.39422 42.238 5.04684 44.0308C5.69944 45.8236 6.07596 47.1126 5.43759 47.3367C4.39022 47.7044 3.38237 46.107 2.33255 44.6906" fill="url(#paint4_radial)"/>
<path fill-rule="evenodd" clip-rule="evenodd" d="M2.08615 37.4613C2.42801 37.2313 2.8581 37.1787 3.2505 37.3044C3.79815 37.4798 4.62922 38.0021 5.45176 39.5012C6.52563 41.4585 7.08467 43.6041 6.97416 44.9633C6.90192 45.8521 5.80689 46.2353 5.1943 45.5872C4.91296 45.2896 4.61529 44.8308 4.32404 44.1348C3.15194 41.3338 2.0561 39.5786 1.92541 39.4024C1.57673 38.9321 1.32742 37.9718 2.08615 37.4613" fill="url(#paint5_radial)"/>
<path d="M4.3457 44.9768C4.36912 44.9544 4.40621 44.9553 4.42854 44.9787L4.43926 44.9903L4.44737 44.9993C4.46215 45.0158 4.47922 45.0354 4.49838 45.0583C4.55285 45.1233 4.61341 45.2008 4.67853 45.291C4.86412 45.548 5.04953 45.8546 5.22248 46.2103C5.71602 47.2255 6.01202 48.4312 6.01202 49.8231C6.01202 49.8555 5.98578 49.8817 5.95342 49.8817C5.92106 49.8817 5.89483 49.8555 5.89483 49.8231C5.89483 48.4496 5.6031 47.2612 5.11709 46.2616C4.94719 45.9121 4.76527 45.6113 4.58353 45.3596C4.52381 45.277 4.4682 45.2053 4.41794 45.1448L4.40858 45.1336C4.39433 45.1166 4.38134 45.1015 4.36973 45.0883L4.35504 45.0719C4.34959 45.0659 4.3458 45.0618 4.34374 45.0596C4.3214 45.0362 4.32228 44.9991 4.3457 44.9768Z" fill="#253369"/>
<path d="M8.77243 45.3869C8.79179 45.361 8.8285 45.3557 8.85444 45.375C8.88037 45.3944 8.88569 45.4311 8.86633 45.4571C8.65292 45.7429 8.45598 46.0502 8.27486 46.376C7.89199 47.0646 7.59598 47.8029 7.37627 48.5413C7.29937 48.7997 7.23752 49.0396 7.18938 49.2548L7.17963 49.2989C7.16814 49.3516 7.1582 49.3996 7.14975 49.4426L7.1443 49.4708L7.13457 49.5239C7.1292 49.5558 7.09898 49.5773 7.06706 49.572C7.03515 49.5666 7.01364 49.5364 7.01901 49.5045L7.02234 49.4856C7.0251 49.4704 7.02846 49.4524 7.03245 49.4319L7.04213 49.3831C7.05156 49.3366 7.0625 49.2852 7.07502 49.2293L7.08567 49.1822C7.13274 48.9768 7.19181 48.7503 7.26395 48.5079C7.48594 47.7619 7.78506 47.0158 8.17244 46.319C8.35602 45.9888 8.55578 45.6771 8.77243 45.3869Z" fill="#253369"/>
<path d="M9.79637 38.0766C9.8188 38.0981 9.82043 38.1331 9.80071 38.1566L9.79814 38.1594C9.79699 38.1606 9.79451 38.1633 9.79075 38.1673L9.77634 38.183L9.76797 38.1923C9.74275 38.2204 9.71343 38.2543 9.68033 38.2939C9.58546 38.4074 9.4796 38.544 9.3655 38.7037C9.03897 39.1609 8.71223 39.7115 8.40715 40.3561C7.8992 41.4293 7.50359 42.6534 7.26383 44.0295C6.97269 45.7005 6.92447 47.526 7.16279 49.5071C7.16665 49.5393 7.14374 49.5685 7.11161 49.5723C7.07948 49.5762 7.0503 49.5533 7.04644 49.5211C6.80676 47.5286 6.85527 45.6917 7.14838 44.0094C7.38999 42.6227 7.78885 41.3886 8.30123 40.306C8.60937 39.6549 8.93965 39.0983 9.27014 38.6356L9.29575 38.6C9.39764 38.4588 9.49291 38.3361 9.57963 38.2317L9.59042 38.2187C9.62157 38.1815 9.64955 38.1491 9.67412 38.1215L9.68073 38.1141C9.6884 38.1055 9.69527 38.098 9.70131 38.0914L9.71353 38.0784C9.73592 38.055 9.77301 38.0542 9.79637 38.0766Z" fill="#253369"/>
<path d="M4.72459 41.5513C4.75226 41.5346 4.78829 41.5434 4.80506 41.5711L4.81095 41.581C4.81563 41.5889 4.82114 41.5983 4.82745 41.6093L4.83665 41.6254C4.85236 41.653 4.87002 41.6848 4.88947 41.7206L4.90558 41.7504C4.96517 41.8613 5.03048 41.9897 5.10022 42.1351L5.10976 42.1551C5.3372 42.6316 5.56455 43.1888 5.77667 43.8221C6.37062 45.5951 6.73196 47.6074 6.74548 49.8229C6.74568 49.8552 6.7196 49.8816 6.68724 49.8818C6.65488 49.882 6.62849 49.8559 6.62829 49.8236C6.61485 47.6211 6.25571 45.621 5.66555 43.8593C5.45881 43.2421 5.23764 42.698 5.01629 42.2314L5.004 42.2055C4.92834 42.047 4.85792 41.9087 4.7944 41.7911L4.77527 41.7559C4.75692 41.7224 4.7404 41.693 4.72586 41.6677L4.71895 41.6558L4.70484 41.6318C4.68807 41.6041 4.69691 41.5681 4.72459 41.5513Z" fill="#253369"/>
<path fill-rule="evenodd" clip-rule="evenodd" d="M2.87225 38.5784C2.88385 38.7167 2.78114 38.8382 2.64286 38.8498C2.50455 38.8614 2.38305 38.7587 2.37144 38.6204C2.35984 38.4822 2.46255 38.3607 2.60085 38.349C2.73914 38.3374 2.86064 38.4402 2.87225 38.5784" fill="white"/>
<path fill-rule="evenodd" clip-rule="evenodd" d="M5.00662 39.6513C5.01824 39.7896 4.91553 39.9111 4.77722 39.9227C4.63892 39.9343 4.51742 39.8316 4.50581 39.6933C4.49421 39.555 4.59692 39.4335 4.73522 39.4219C4.87351 39.4103 4.99503 39.513 5.00662 39.6513" fill="white"/>
<path fill-rule="evenodd" clip-rule="evenodd" d="M4.64888 42.5079C4.66217 42.6663 4.54455 42.8054 4.38617 42.8187C4.22779 42.832 4.08864 42.7144 4.07537 42.556C4.06207 42.3976 4.17969 42.2585 4.33807 42.2452C4.49643 42.2319 4.63558 42.3495 4.64888 42.5079" fill="white"/>
<path fill-rule="evenodd" clip-rule="evenodd" d="M11.2046 38.2389C11.2046 38.4636 11.0224 38.6459 10.7976 38.6459C10.5729 38.6459 10.3907 38.4636 10.3907 38.2389C10.3907 38.0141 10.5729 37.8319 10.7976 37.8319C11.0224 37.8319 11.2046 38.0141 11.2046 38.2389" fill="white"/>
<path fill-rule="evenodd" clip-rule="evenodd" d="M7.92843 39.4815C7.92843 39.7063 7.74622 39.8885 7.52146 39.8885C7.29669 39.8885 7.1145 39.7063 7.1145 39.4815C7.1145 39.2568 7.29669 39.0746 7.52146 39.0746C7.74622 39.0746 7.92843 39.2568 7.92843 39.4815" fill="white"/>
<path fill-rule="evenodd" clip-rule="evenodd" d="M8.98949 42.2441C8.98949 42.338 8.91333 42.4142 8.81939 42.4142C8.72545 42.4142 8.64929 42.338 8.64929 42.2441C8.64929 42.1501 8.72545 42.074 8.81939 42.074C8.91333 42.074 8.98949 42.1501 8.98949 42.2441" fill="white"/>
<path fill-rule="evenodd" clip-rule="evenodd" d="M10.215 44.4195C10.215 44.5583 10.1024 44.6708 9.96368 44.6708C9.82488 44.6708 9.7124 44.5583 9.7124 44.4195C9.7124 44.2807 9.82488 44.1682 9.96368 44.1682C10.1024 44.1682 10.215 44.2807 10.215 44.4195" fill="white"/>
<mask id="mask1" mask-type="alpha" maskUnits="userSpaceOnUse" x="3" y="48" width="7" height="5">
<path fill-rule="evenodd" clip-rule="evenodd" d="M3.6716 48.0391H9.73196V52.7296H3.6716V48.0391Z" fill="white"/>
</mask>
<g mask="url(#mask1)">
<path fill-rule="evenodd" clip-rule="evenodd" d="M9.23417 52.7296H4.16939C3.8956 52.7296 3.6716 52.5056 3.6716 52.2318V48.5369C3.6716 48.263 3.8956 48.0391 4.16939 48.0391H9.23417C9.50793 48.0391 9.73196 48.263 9.73196 48.5369V52.2318C9.73196 52.5056 9.50793 52.7296 9.23417 52.7296" fill="#80F5E5"/>
</g>
<rect x="31.5932" y="51.1666" width="1.16667" height="7" fill="#7AF0DF"/>
<rect x="45.1667" y="45.3334" width="1.16667" height="7" fill="#7AF0DF"/>
<ellipse cx="45.75" cy="52.3334" rx="2.91667" ry="1.16667" fill="#7AF0DF"/>
<path fill-rule="evenodd" clip-rule="evenodd" d="M48.3711 36.6197L45.5031 36.0235C44.8861 35.8952 44.2353 36.3054 44.0495 36.9397C44.0167 37.0519 44 37.1668 44 37.2807V45.8542C44 46.3464 44.3089 46.7569 44.772 46.8802L47.64 47.6437C48.2464 47.8052 48.9146 47.428 49.1326 46.8014C49.1781 46.6705 49.2014 46.5348 49.2014 46.4003V37.6594C49.2014 37.1447 48.864 36.7222 48.3711 36.6197Z" fill="url(#paint6_linear)"/>
<rect x="48.6667" y="37.1666" width="1.16667" height="7" rx="0.5" fill="#80F5E5"/>
<rect x="26.0734" y="44" width="1.5" height="10.5" rx="0.5" fill="#7AF0DF"/>
<rect x="51.5734" y="50" width="1.5" height="10.5" rx="0.5" fill="#7AF0DF"/>
<rect x="33.5734" y="42.5" width="1.5" height="10.5" rx="0.5" fill="#7AF0DF"/>
<rect x="60.5734" y="47" width="1.5" height="10.5" rx="0.5" fill="#7AF0DF"/>
<path fill-rule="evenodd" clip-rule="evenodd" d="M36.2669 41.2273L63.084 46.9307C64.0076 47.1271 65.0752 48.0026 64.7025 48.8701C64.6013 49.1056 64.3872 49.3065 63.9708 49.4503L56.8499 51.7157C55.4543 52.1255 52.8607 52.1332 51.1041 51.737L23.8793 44.9571C23.5053 44.8512 23.2836 44.6707 23.1564 44.4523C22.6633 43.6055 23.7835 42.6658 24.7506 42.5077L31.6269 41.383C31.7281 41.3664 31.8273 41.3415 31.9257 41.3126C33.2103 40.9347 35.0953 40.8911 36.2669 41.2273Z" fill="#7AF0DF"/>
<path fill-rule="evenodd" clip-rule="evenodd" d="M36.2669 39.7273L63.0284 46.4668C64.7559 46.8603 65.1983 47.5262 63.9708 47.9503L56.8499 50.2157C55.4543 50.6255 52.8607 50.6332 51.1041 50.237L23.8793 43.4571C22.64 43.1062 22.8624 42.4982 24.3243 42.0945L31.7788 39.8581C33.0629 39.4386 35.0498 39.3781 36.2669 39.7273Z" fill="#E1FFFB"/>
<path fill-rule="evenodd" clip-rule="evenodd" d="M31.7014 42.9761C31.7014 42.5349 31.4122 42.1458 30.9897 42.0186L27.7883 41.0546C27.1465 40.8613 26.5 41.3418 26.5 42.0121V50.9271C26.5 51.3489 26.7647 51.7254 27.1617 51.8681L30.3631 53.0189C31.0147 53.2531 31.7014 52.7703 31.7014 52.0778V42.9761Z" fill="#F5FFFE"/>
<path fill-rule="evenodd" clip-rule="evenodd" d="M38.402 50.2053L31.7014 48.6011L31.7014 52.3333L32.5827 52.6667L34.4017 52.3333L36.7889 51.4376L38.402 50.2053Z" fill="#C0FFF6"/>
<path d="M31.7014 42.75C31.9877 42.75 32.2259 42.9564 32.2753 43.2285L32.2847 43.3333V51.7838C32.2847 52.0834 32.4457 52.1668 33.1994 52.0367C34.1909 51.8654 35.7416 51.2404 37.8223 50.1623C38.1083 50.014 38.4604 50.1258 38.6086 50.4118C38.7568 50.6978 38.6451 51.0499 38.3591 51.1981C36.1802 52.3272 34.5363 52.9897 33.398 53.1863C32.0874 53.4127 31.2052 52.9986 31.1241 51.9464L31.118 51.7838V43.3333C31.118 43.0112 31.3792 42.75 31.7014 42.75Z" fill="#80F5E5"/>
<ellipse cx="32.1766" cy="58.1667" rx="2.91667" ry="1.16667" fill="#7AF0DF"/>
<path fill-rule="evenodd" clip-rule="evenodd" d="M44 22.0146L61 24.3483C62.1046 24.5255 63 25.5668 63 26.6714V32.6714C63 33.776 62.1046 34.4816 61 34.2504L44 31.0847C42.8954 30.9046 42 29.9574 42 28.9664L42 23.5831C42 22.5921 42.8954 21.8886 44 22.0146Z" fill="#A9FFF3" fill-opacity="0.4"/>
<path fill-rule="evenodd" clip-rule="evenodd" d="M46 21.0146L63 23.3483C64.1046 23.5255 65 24.5668 65 25.6714V31.6714C65 32.776 64.1046 33.4816 63 33.2504L46 30.0847C44.8954 29.9046 44 28.9574 44 27.9664L44 22.5831C44 21.5921 44.8954 20.8886 46 21.0146Z" fill="#A9FFF3" fill-opacity="0.4"/>
<path fill-rule="evenodd" clip-rule="evenodd" d="M48 25.1813V30.1813L47 30V25L48 25.1813ZM50 26.5439V30.5439L49 30.3626V26.3626L50 26.5439ZM52 28.9065V30.9065L51 30.7252V28.7252L52 28.9065ZM54 28.269V31.269L53 31.0877V28.0877L54 28.269Z" fill="white" fill-opacity="0.6"/>
<defs>
<linearGradient id="paint0_linear" x1="-36.1128" y1="-35.6772" x2="-36.1128" y2="109.245" gradientUnits="userSpaceOnUse">
<stop stop-color="#17DFC2"/>
<stop offset="1" stop-color="#20DBC0"/>
</linearGradient>
<radialGradient id="paint1_radial" cx="0" cy="0" r="1" gradientUnits="userSpaceOnUse" gradientTransform="translate(20 27.6535) rotate(90) scale(16.2184 35.4039)">
<stop stop-color="#42FFE3"/>
<stop offset="1" stop-color="white"/>
</radialGradient>
<radialGradient id="paint2_radial" cx="0" cy="0" r="1" gradientUnits="userSpaceOnUse" gradientTransform="translate(9.31232 40.2698) rotate(90) scale(7.80623 6.71233)">
<stop stop-color="#42FFE3"/>
<stop offset="1" stop-color="#A5F59E"/>
</radialGradient>
<radialGradient id="paint3_radial" cx="0" cy="0" r="1" gradientUnits="userSpaceOnUse" gradientTransform="translate(9.34101 45.2302) rotate(90) scale(3.29514 4.02614)">
<stop stop-color="#42FFE3"/>
<stop offset="1" stop-color="white"/>
</radialGradient>
<radialGradient id="paint4_radial" cx="0" cy="0" r="1" gradientUnits="userSpaceOnUse" gradientTransform="translate(3.67838 44.4958) rotate(90) scale(4.48462 4.6214)">
<stop stop-color="#42FFE3"/>
<stop offset="1" stop-color="#A5F59E"/>
</radialGradient>
<radialGradient id="paint5_radial" cx="0" cy="0" r="1" gradientUnits="userSpaceOnUse" gradientTransform="translate(4.28888 41.5746) rotate(90) scale(6.71943 5.97229)">
<stop stop-color="#42FFE3"/>
<stop offset="1" stop-color="white"/>
</radialGradient>
<linearGradient id="paint6_linear" x1="45.0642" y1="36" x2="45.0642" y2="42.9014" gradientUnits="userSpaceOnUse">
<stop stop-color="#FBFFFF"/>
<stop offset="1" stop-color="#ADF6EB"/>
</linearGradient>
</defs>
</svg>
