<svg width="24" height="24" viewBox="0 0 24 24" fill="none" xmlns="http://www.w3.org/2000/svg">
<rect opacity="0.01" y="24" width="24" height="24" transform="rotate(-90 0 24)" fill="black"/>
<path d="M4.36342 11.6874L10.8427 5.20813C11.1356 4.91523 11.1356 4.44036 10.8427 4.14746C10.5498 3.85456 10.0749 3.85457 9.78205 4.14746L2.0239 11.9056C1.73101 12.1985 1.731 12.6734 2.0239 12.9663L9.97259 20.9771C10.2655 21.27 10.7404 21.27 11.0333 20.9771C11.3261 20.6842 11.3261 20.2093 11.0333 19.9164L4.36636 13.1874L21.6967 13.1866C22.1109 13.1866 22.4467 12.8509 22.4467 12.4366C22.4467 12.0224 22.1109 11.6867 21.6967 11.6866L4.36344 11.6874L4.36342 11.6874Z" fill="#9AA09F"/>
</svg>
