<svg width="107" height="77" viewBox="0 0 107 77" fill="none" xmlns="http://www.w3.org/2000/svg">
<rect opacity="0.01" x="48.2017" width="48" height="48" transform="rotate(21 48.2017 0)" fill="black"/>
<path fill-rule="evenodd" clip-rule="evenodd" d="M70.2166 9.61921C78.6537 12.8579 82.8678 22.3231 79.6291 30.7602L75.3287 41.9631L76.7606 46.9999C77.0544 48.0333 76.7391 49.144 75.9462 49.8689C75.1533 50.5938 74.0189 50.8085 73.0159 50.4235L40.8328 38.0696C39.8299 37.6846 39.1305 36.766 39.0263 35.6967C38.9221 34.6274 39.431 33.591 40.3408 33.0197L44.7752 30.2347L49.0756 19.0318C52.3143 10.5946 61.7794 6.3805 70.2166 9.61921ZM63.2085 48.9958C61.3592 52.317 57.3489 53.7723 53.8001 52.4101C50.2513 51.0478 48.2447 47.2828 49.0928 43.5773L63.2085 48.9958ZM71.2965 23.2684C71.642 22.3685 72.6516 21.919 73.5515 22.2644C74.3731 22.5795 74.8317 23.4567 74.6215 24.3111L74.5555 24.5195L71.9464 31.3166C71.6119 32.1704 70.6739 32.6198 69.7989 32.3455C68.924 32.0712 68.4105 31.1666 68.6234 30.2747L68.6873 30.0656L71.2965 23.2684Z" fill="#23D3B9"/>
<rect opacity="0.01" x="6.39941" y="40.5796" width="20" height="20" transform="rotate(-18 6.39941 40.5796)" fill="black"/>
<path fill-rule="evenodd" clip-rule="evenodd" d="M16.0505 37.9218C19.6318 36.7582 23.4783 38.7181 24.6419 42.2994L26.187 47.0547L27.9714 48.3102C28.3375 48.5677 28.5266 49.0101 28.46 49.4527C28.3933 49.8954 28.0823 50.2624 27.6565 50.4007L13.9959 54.8393C13.5702 54.9776 13.1028 54.8635 12.7887 54.5446C12.4746 54.2257 12.3676 53.7567 12.5124 53.3331L13.218 51.2685L11.6729 46.5133C10.5093 42.932 12.4692 39.0855 16.0505 37.9218ZM24.1064 52.5101C24.3785 54.0704 23.4615 55.5932 21.9551 56.0827C20.4488 56.5721 18.8118 55.8791 18.1148 54.4569L24.1064 52.5101ZM19.9792 42.0584C19.8551 41.6764 20.0642 41.2661 20.4462 41.142C20.7948 41.0286 21.1733 41.1924 21.3293 41.5242L21.3626 41.609L22.3 44.4941C22.4156 44.8583 22.2297 45.2498 21.8745 45.3904C21.5192 45.531 21.1158 45.3727 20.9508 45.0281L20.9167 44.9436L19.9792 42.0584Z" fill="#95FFCB"/>
<rect x="82.0049" y="7.94043" width="8" height="3" rx="1.5" transform="rotate(-40 82.0049 7.94043)" fill="#FFE444"/>
<rect x="85.064" y="11.7241" width="8" height="3" rx="1.5" transform="rotate(-18 85.064 11.7241)" fill="#FFE444"/>
<rect x="86.6816" y="16.2607" width="8" height="3" rx="1.5" fill="#FFE444"/>
<ellipse cx="54.5" cy="70.5" rx="46.5" ry="6.5" fill="#DFFFD4"/>
<path fill-rule="evenodd" clip-rule="evenodd" d="M2.25 58L0 64L6 61.75L2.25 58Z" fill="#FFE444"/>
<path fill-rule="evenodd" clip-rule="evenodd" d="M96.1578 51.7657L106.495 54.4498L101.72 44.8966L96.1578 51.7657Z" fill="#FFE444"/>
</svg>
