<svg width="24" height="24" viewBox="0 0 24 24" fill="none" xmlns="http://www.w3.org/2000/svg">
<rect opacity="0.01" width="24" height="24" fill="black"/>
<path fill-rule="evenodd" clip-rule="evenodd" d="M4.65471 21.7546H13.4953C13.9852 21.7546 14.3813 21.3585 14.3813 20.871V4.95464C14.3813 3.49214 13.1906 2.30151 11.7281 2.30151H4.65471C3.19221 2.30151 2.00159 3.49214 2.00159 4.95464V19.1015C2.00159 20.564 3.19221 21.7546 4.65471 21.7546ZM3.77112 4.95464C3.77112 4.46714 4.16721 4.07104 4.65471 4.07104H11.7281C12.2156 4.07104 12.6117 4.46714 12.6117 4.95464V19.9851H4.65471C4.16721 19.9851 3.77112 19.589 3.77112 19.1015V4.95464Z" fill="#B0B9B7"/>
<path fill-rule="evenodd" clip-rule="evenodd" d="M10.4016 8.93442H5.97893C5.49143 8.93442 5.09534 8.53833 5.09534 8.05083C5.09534 7.56333 5.49143 7.16724 5.97893 7.16724H10.3992C10.8867 7.16724 11.2828 7.56333 11.2828 8.05083C11.2852 8.53833 10.8891 8.93442 10.4016 8.93442ZM13.4953 21.7547H19.2422C20.7071 21.7547 21.8953 20.5641 21.8953 19.1016V9.82036C21.8953 8.35786 20.7047 7.16724 19.2422 7.16724H13.4953C13.0078 7.16724 12.6117 7.56333 12.6117 8.05083V20.8711C12.6117 21.3586 13.0078 21.7547 13.4953 21.7547ZM19.2422 19.9875H14.3813V8.93442H19.2422C19.7297 8.93442 20.1258 9.33052 20.1258 9.81802V19.104C20.1258 19.5915 19.7297 19.9875 19.2422 19.9875ZM5.97893 12.9118H10.4016C10.8891 12.9118 11.2852 12.518 11.2828 12.0282C11.2828 11.5407 10.8867 11.1446 10.3992 11.1446H5.97893C5.49143 11.1446 5.09534 11.5407 5.09534 12.0282C5.09534 12.5157 5.49143 12.9118 5.97893 12.9118Z" fill="#B0B9B7"/>
<path fill-rule="evenodd" clip-rule="evenodd" d="M16.4813 19.9875C16.4813 20.475 16.8774 20.8711 17.3649 20.8711C17.8524 20.8711 18.2485 20.475 18.2485 19.9875V13.7977C18.2485 13.3102 17.8524 12.9141 17.3649 12.9141C16.8774 12.9141 16.4813 13.3102 16.4813 13.7977V19.9875ZM5.97893 16.8914H10.4016C10.8891 16.8914 11.2852 16.4953 11.2828 16.0078C11.2828 15.5203 10.8867 15.1242 10.3992 15.1242H5.97893C5.49143 15.1242 5.09534 15.5203 5.09534 16.0078C5.09534 16.4953 5.49143 16.8914 5.97893 16.8914Z" fill="#B0B9B7"/>
</svg>
