<svg width="24" height="24" viewBox="0 0 24 24" fill="none" xmlns="http://www.w3.org/2000/svg">
<rect opacity="0.01" width="24" height="24" fill="black"/>
<path d="M0 0H24V24H0V0Z" fill="white"/>
<path fill-rule="evenodd" clip-rule="evenodd" d="M2.45142 8.50564C2.45142 8.22127 2.59529 7.95621 2.83375 7.80127L11.2088 2.51877C11.6891 2.20631 12.3084 2.20631 12.7888 2.51877L21.1638 7.80127C21.4022 7.95621 21.5461 8.22127 21.5461 8.50564C21.5461 8.79002 21.4022 9.05508 21.1638 9.21002L12.7888 14.4925C12.3081 14.8037 11.6895 14.8037 11.2088 14.4925L2.83375 9.21002C2.59529 9.05508 2.45142 8.79002 2.45142 8.50564ZM19.5 8.50002L12 3.79502L4.5 8.50002L12 13.2163L19.5 8.50002Z" fill="#B0B9B7"/>
<path d="M16.835 13.775L19.5 15.5L12 20.2162L4.49997 15.5L7.16247 13.77L5.78747 12.875L2.86247 14.7763C2.61775 14.9357 2.47015 15.2079 2.47015 15.5C2.47015 15.7921 2.61775 16.0643 2.86247 16.2238L11.1775 21.4663C11.6763 21.7926 12.3211 21.7926 12.82 21.4663L21.135 16.2238C21.3797 16.0643 21.5273 15.7921 21.5273 15.5C21.5273 15.2079 21.3797 14.9357 21.135 14.7763L18.2112 12.875L16.835 13.775Z" fill="#B0B9B7"/>
</svg>
