<svg width="129" height="53" viewBox="0 0 129 53" fill="none" xmlns="http://www.w3.org/2000/svg">
<g clip-path="url(#clip0)">
<path d="M31.473 27.1958C31.8178 27.209 32.1028 27.3151 32.3283 27.514C32.5537 27.6996 32.6995 27.9184 32.7658 28.1704C32.8321 28.4223 32.8122 28.6742 32.7062 28.9262C32.6001 29.1648 32.3813 29.3505 32.0498 29.4831C31.8111 29.5759 31.526 29.6356 31.1946 29.6621C30.8763 29.6886 30.5515 29.6952 30.22 29.682C29.9017 29.682 29.6034 29.6687 29.3249 29.6422C29.0465 29.6289 28.8343 29.6223 28.6885 29.6223H27.515C27.2365 29.6223 26.9979 29.5427 26.799 29.3836C26.6001 29.2378 26.4542 29.0588 26.3614 28.8466C26.2818 28.6345 26.262 28.409 26.3017 28.1704C26.3548 27.9317 26.4807 27.7129 26.6796 27.514C26.8653 27.3284 27.1106 27.2223 27.4155 27.1958C27.7205 27.1693 28.0255 27.1693 28.3305 27.1958V19.3195C28.0255 19.3195 27.7404 19.3195 27.4752 19.3195C27.21 19.3063 26.9448 19.2068 26.6796 19.0212C26.4807 18.8753 26.3481 18.7096 26.2818 18.524C26.2155 18.3251 26.2023 18.1328 26.2421 17.9472C26.2951 17.7483 26.3879 17.5626 26.5205 17.3903C26.6531 17.2179 26.8189 17.0919 27.0178 17.0124C27.2034 16.9328 27.3957 16.893 27.5946 16.893C28.2708 16.893 28.947 16.893 29.6233 16.893C30.3128 16.8798 31.0023 16.8798 31.6918 16.893C31.7581 16.893 31.8178 16.9129 31.8708 16.9527C31.9371 16.9925 32.0034 17.0256 32.0697 17.0521C32.3747 17.2245 32.5802 17.4698 32.6863 17.788C32.7923 18.1063 32.7526 18.4179 32.5669 18.7229C32.4741 18.882 32.3548 19.0079 32.2089 19.1008C32.0763 19.1803 31.9238 19.24 31.7515 19.2798C31.5923 19.3063 31.4266 19.3195 31.2542 19.3195C31.0818 19.3195 30.9161 19.3195 30.757 19.3195V27.2356C30.8631 27.2356 30.9559 27.2356 31.0354 27.2356C31.1283 27.2223 31.2277 27.209 31.3338 27.1958H31.473ZM44.6878 28.6477C44.6082 29.0853 44.4359 29.3969 44.1707 29.5825C43.9055 29.7814 43.627 29.8742 43.3353 29.861C43.0569 29.8477 42.8049 29.7284 42.5795 29.503C42.3674 29.2908 42.2613 28.9925 42.2613 28.6079V17.2709C42.2613 17.072 42.3143 16.893 42.4204 16.7339C42.5397 16.5615 42.6856 16.4223 42.858 16.3162C43.0303 16.2101 43.216 16.1438 43.4149 16.1173C43.627 16.0776 43.8193 16.0842 43.9917 16.1372C44.164 16.177 44.3099 16.2764 44.4292 16.4356C44.5618 16.5814 44.6348 16.7869 44.648 17.0521C44.6878 18.0864 44.7077 19.0146 44.7077 19.8367C44.7077 20.6588 44.7011 21.4875 44.6878 22.3229C44.9928 22.0974 45.2778 21.8654 45.543 21.6267C45.8215 21.3748 46.0933 21.1162 46.3585 20.851C46.5972 20.5991 46.8292 20.3206 47.0546 20.0157C47.2801 19.6974 47.5651 19.4787 47.9099 19.3593C48.1618 19.2798 48.3939 19.2665 48.606 19.3195C48.8314 19.3726 49.0171 19.4787 49.1629 19.6378C49.322 19.7836 49.4281 19.9693 49.4812 20.1947C49.5342 20.4068 49.5209 20.6389 49.4414 20.8908C49.3751 21.0764 49.2226 21.3085 48.9839 21.5869C48.7585 21.8654 48.4999 22.1505 48.2082 22.4422C47.9298 22.7339 47.6513 23.0057 47.3729 23.2577C47.0944 23.4963 46.869 23.682 46.6966 23.8146C47.1607 24.3184 47.6182 24.8289 48.069 25.3461C48.5198 25.8632 48.9773 26.3803 49.4414 26.8974C49.6403 27.1229 49.8259 27.3284 49.9983 27.514C50.1839 27.6864 50.343 27.8985 50.4756 28.1505C50.5817 28.3626 50.6149 28.5814 50.5751 28.8068C50.5353 29.0322 50.4425 29.2245 50.2966 29.3836C50.164 29.556 49.9917 29.682 49.7795 29.7615C49.5806 29.8411 49.3618 29.8477 49.1232 29.7814C48.8977 29.7151 48.679 29.5892 48.4668 29.4035C48.2546 29.2311 48.0491 29.0389 47.8502 28.8267C47.6646 28.6146 47.4856 28.3958 47.3132 28.1704C47.1408 27.945 46.9817 27.7527 46.8359 27.5936C46.4778 27.1825 46.1198 26.7781 45.7618 26.3803C45.4171 25.9693 45.0591 25.5715 44.6878 25.1869V28.6477ZM59.8749 28.7671C59.8351 29.0985 59.7091 29.3704 59.497 29.5825C59.2981 29.7947 59.066 29.9273 58.8009 29.9803C58.5489 30.0334 58.3036 30.0002 58.0649 29.8809C57.8263 29.7615 57.6539 29.5295 57.5478 29.1847C57.4285 28.8135 57.3821 28.4289 57.4086 28.0311C57.4351 27.6201 57.4484 27.2422 57.4484 26.8974C57.4484 26.1814 57.4484 25.472 57.4484 24.7693C57.4616 24.0532 57.4351 23.3372 57.3688 22.6212C57.3555 22.5947 57.3423 22.5748 57.329 22.5615C57.3158 22.535 57.2892 22.5019 57.2495 22.4621C56.9445 22.3825 56.6196 22.4024 56.2749 22.5217C55.9301 22.6411 55.6384 22.7936 55.3997 22.9792C55.1876 23.1516 54.9754 23.3903 54.7633 23.6952C54.5644 23.9869 54.4649 24.272 54.4649 24.5505V27.2952C54.4649 27.5074 54.4716 27.7394 54.4848 27.9914C54.4981 28.2433 54.4848 28.4886 54.4451 28.7273C54.4185 28.9659 54.3456 29.1847 54.2263 29.3836C54.1069 29.5825 53.9147 29.7284 53.6495 29.8212C53.5036 29.8742 53.3644 29.8941 53.2318 29.8809C53.1125 29.8676 52.9799 29.8345 52.834 29.7814C52.5953 29.7019 52.423 29.5626 52.3169 29.3637C52.2108 29.1781 52.1379 28.9792 52.0981 28.7671C52.0583 28.5416 52.0384 28.3295 52.0384 28.1306C52.0517 27.9184 52.0583 27.7527 52.0583 27.6334C52.0583 27.3284 52.0517 26.8908 52.0384 26.3206C52.0384 25.7372 52.0384 25.1273 52.0384 24.4908C52.0384 23.8543 52.0384 23.251 52.0384 22.6809C52.0384 22.0974 52.0384 21.6532 52.0384 21.3483C52.0384 21.0566 52.1246 20.8179 52.297 20.6322C52.4694 20.4334 52.6683 20.3074 52.8937 20.2543C53.1323 20.188 53.3776 20.2013 53.6296 20.2941C53.8948 20.3737 54.1136 20.5461 54.2859 20.8113C54.8163 20.4665 55.3997 20.2345 56.0362 20.1151C56.6727 19.9958 57.2694 20.0157 57.8263 20.1748C58.3964 20.3339 58.8671 20.6322 59.2384 21.0698C59.623 21.5074 59.8218 22.1107 59.8351 22.8798C59.8351 22.9063 59.8417 22.9858 59.855 23.1184C59.8683 23.251 59.8749 23.4367 59.8749 23.6753V28.7671ZM61.6028 24.5306C61.6956 24.1461 61.8216 23.7682 61.9807 23.3969C62.1531 23.0256 62.3586 22.6742 62.5973 22.3427C62.836 21.998 63.1011 21.6864 63.3929 21.4079C63.6978 21.1295 64.0227 20.9041 64.3674 20.7317C64.9774 20.4135 65.5873 20.2543 66.1973 20.2543C66.8205 20.2411 67.3973 20.3604 67.9277 20.6124C68.4581 20.8643 68.9089 21.2422 69.2802 21.7461C69.6514 22.2367 69.8967 22.8267 70.0161 23.5162C70.0824 23.9671 70.1155 24.398 70.1155 24.809C70.1288 25.2068 70.089 25.6245 69.9962 26.0621C69.8636 26.6853 69.5918 27.3085 69.1807 27.9317C68.7829 28.5416 68.2989 29.0521 67.7288 29.4632C67.1719 29.8875 66.5553 30.1659 65.879 30.2985C65.2161 30.4311 64.5465 30.3251 63.8702 29.9803C63.5652 29.8345 63.2868 29.6621 63.0348 29.4632C62.7962 29.2775 62.5774 29.0521 62.3785 28.7869C62.1531 28.4952 61.9741 28.1903 61.8415 27.872C61.7221 27.5538 61.6227 27.2223 61.5431 26.8775C61.4503 26.5063 61.4172 26.135 61.4437 25.7637C61.4702 25.3792 61.5166 25.0079 61.5829 24.6499L61.6028 24.5306ZM63.9895 24.9483C63.9498 25.1604 63.9166 25.3726 63.8901 25.5847C63.8636 25.7836 63.8636 25.9892 63.8901 26.2013C63.9299 26.5063 64.0094 26.7847 64.1288 27.0367C64.2614 27.2886 64.4271 27.4875 64.626 27.6334C64.8382 27.7792 65.0768 27.8588 65.342 27.872C65.6072 27.872 65.8923 27.7858 66.1973 27.6135C66.5818 27.388 66.9133 27.0433 67.1918 26.5792C67.4702 26.1019 67.6426 25.6113 67.7089 25.1074C67.7752 24.5903 67.7221 24.1063 67.5498 23.6555C67.3774 23.1914 67.0393 22.8599 66.5354 22.661C66.2039 22.661 65.8989 22.7273 65.6205 22.8599C65.342 22.9792 65.0967 23.145 64.8846 23.3571C64.6857 23.556 64.5067 23.7947 64.3476 24.0731C64.2017 24.3516 64.0824 24.6433 63.9895 24.9483ZM81.7794 20.6919C81.9783 20.4267 82.2037 20.2477 82.4556 20.1549C82.7208 20.0488 82.9661 20.0289 83.1915 20.0952C83.4169 20.1483 83.6092 20.2809 83.7683 20.493C83.9274 20.7052 84.0136 20.9903 84.0269 21.3483C84.0401 21.5472 83.954 21.9052 83.7683 22.4223C83.5959 22.9394 83.3838 23.6157 83.1319 24.451C83.1186 24.5041 83.0921 24.5704 83.0523 24.6499C83.0258 24.7295 82.9794 24.8621 82.9131 25.0477C82.86 25.2334 82.7738 25.4919 82.6545 25.8234C82.5484 26.1549 82.3959 26.5991 82.197 27.156C82.1042 27.4345 81.9849 27.7659 81.839 28.1505C81.7064 28.535 81.5341 28.8798 81.3219 29.1847C81.1098 29.4764 80.8578 29.6753 80.5661 29.7814C80.2744 29.9008 79.923 29.8212 79.512 29.5427C79.3794 29.4499 79.2335 29.2643 79.0744 28.9858C78.9153 28.6941 78.7628 28.3825 78.6169 28.051C78.4711 27.7195 78.3385 27.4079 78.2191 27.1162C78.1131 26.8113 78.0401 26.6124 78.0004 26.5195C77.9075 26.3074 77.8015 26.0753 77.6821 25.8234C77.5628 25.5582 77.4501 25.293 77.344 25.0278L77.2247 25.3262C77.0523 25.7637 76.8799 26.2013 76.7075 26.6389C76.5352 27.0764 76.3628 27.5074 76.1904 27.9317C76.0976 28.1571 76.0114 28.4024 75.9319 28.6676C75.8523 28.9328 75.7396 29.1648 75.5937 29.3637C75.4744 29.5361 75.3219 29.6555 75.1363 29.7217C74.9639 29.8013 74.7849 29.8345 74.5993 29.8212C74.4136 29.8079 74.2346 29.7549 74.0622 29.6621C73.9031 29.5825 73.7639 29.4632 73.6446 29.3041C73.4589 29.0389 73.3131 28.7339 73.207 28.3892C73.1009 28.0444 72.9948 27.7262 72.8888 27.4345C72.7429 27.0234 72.6103 26.6057 72.491 26.1814C72.3716 25.7438 72.2457 25.3262 72.1131 24.9284C72.0468 24.7162 71.9606 24.4378 71.8545 24.093C71.7484 23.7483 71.6423 23.3969 71.5363 23.0389C71.4435 22.6676 71.3639 22.3096 71.2976 21.9648C71.2446 21.6201 71.2247 21.335 71.2379 21.1096C71.2512 20.8842 71.3241 20.6853 71.4567 20.5129C71.6026 20.3273 71.7749 20.1947 71.9738 20.1151C72.1727 20.0223 72.3783 19.9892 72.5904 20.0157C72.8158 20.0422 73.0147 20.1416 73.1871 20.314C73.439 20.5792 73.5915 20.8643 73.6446 21.1693C73.6976 21.461 73.7573 21.7792 73.8236 22.124C73.9296 22.6543 74.049 23.1781 74.1816 23.6952C74.3274 24.2124 74.4799 24.7295 74.639 25.2466C74.6921 25.1273 74.7517 24.9814 74.818 24.809C74.8843 24.6367 74.9904 24.3781 75.1363 24.0334C75.2556 23.7416 75.3683 23.4566 75.4744 23.1781C75.5937 22.8996 75.7064 22.6212 75.8125 22.3427C75.8921 22.1438 75.9716 21.9516 76.0512 21.7659C76.1307 21.5671 76.2103 21.3748 76.2899 21.1892C76.3827 20.9903 76.5153 20.8311 76.6877 20.7118C76.8733 20.5792 77.0722 20.4996 77.2843 20.4731C77.4965 20.4334 77.702 20.4532 77.9009 20.5328C78.0998 20.5991 78.2589 20.7317 78.3783 20.9306C78.5506 21.1958 78.6832 21.4941 78.776 21.8256C78.8689 22.1438 78.9683 22.4488 79.0744 22.7405C79.26 23.2179 79.439 23.7019 79.6114 24.1925C79.797 24.6698 79.9893 25.1405 80.1882 25.6046C80.4799 24.809 80.7385 24.0135 80.9639 23.2179C81.1893 22.409 81.4346 21.6068 81.6998 20.8113L81.7794 20.6919ZM95.0537 28.7273C95.0272 28.9925 94.9344 29.2245 94.7753 29.4234C94.6162 29.6356 94.4305 29.788 94.2184 29.8809C94.0195 29.9737 93.8007 29.9936 93.562 29.9405C93.3234 29.8875 93.1112 29.7416 92.9256 29.503C92.8195 29.3704 92.7399 29.2245 92.6869 29.0654C92.6471 28.893 92.6206 28.7206 92.6073 28.5483C92.5941 28.3626 92.5874 28.1836 92.5874 28.0113C92.6007 27.8256 92.6073 27.6599 92.6073 27.514C92.5941 26.7317 92.5874 25.956 92.5874 25.1869C92.6007 24.4179 92.6007 23.6422 92.5874 22.8599C92.5874 22.5416 92.5676 22.2234 92.5278 21.9052C92.488 21.5737 92.5079 21.2488 92.5874 20.9306C92.6537 20.6919 92.7665 20.4864 92.9256 20.314C93.0979 20.1416 93.2836 20.0223 93.4825 19.956C93.6946 19.8897 93.9068 19.8831 94.1189 19.9361C94.3444 19.9892 94.5366 20.1284 94.6957 20.3538C94.9079 20.619 95.014 20.8842 95.014 21.1494C95.014 21.4013 95.014 21.7129 95.014 22.0842C95.014 22.535 95.014 22.9858 95.014 23.4367C95.014 23.8875 95.0206 24.3317 95.0339 24.7693C95.0471 25.4057 95.0537 26.0422 95.0537 26.6787C95.0537 27.3151 95.0537 27.9516 95.0537 28.588V28.7273ZM92.4283 17.4101C92.4814 16.9195 92.6471 16.5615 92.9256 16.3361C93.2173 16.0974 93.5223 15.9847 93.8405 15.998C94.1587 15.998 94.4504 16.1173 94.7156 16.356C94.9941 16.5947 95.1399 16.9328 95.1532 17.3704C95.1797 17.8212 95.0604 18.1726 94.7952 18.4245C94.5432 18.6632 94.2515 18.8024 93.92 18.8422C93.5885 18.8687 93.2769 18.7759 92.9852 18.5637C92.6935 18.3516 92.5145 18.0135 92.4482 17.5494L92.4283 17.4101ZM97.4287 22.661C97.1635 22.5947 96.9315 22.482 96.7326 22.3229C96.547 22.1637 96.4144 21.9781 96.3348 21.7659C96.2685 21.5538 96.2685 21.335 96.3348 21.1096C96.4144 20.8842 96.5801 20.6787 96.832 20.493C97.0442 20.3339 97.2829 20.2543 97.5481 20.2543C97.8133 20.2543 98.0718 20.2543 98.3238 20.2543C98.3238 20.1615 98.3171 19.9626 98.3039 19.6577C98.2906 19.3394 98.284 18.9947 98.284 18.6234C98.2972 18.2521 98.3238 17.9008 98.3635 17.5693C98.4033 17.2245 98.4762 16.9858 98.5823 16.8532C98.8475 16.482 99.1724 16.3096 99.5569 16.3361C99.9547 16.3494 100.28 16.535 100.531 16.893C100.585 16.9593 100.631 17.0389 100.671 17.1317C100.724 17.2245 100.75 17.3107 100.75 17.3903C100.764 17.8676 100.764 18.345 100.75 18.8223C100.75 19.2996 100.75 19.777 100.75 20.2543H102.322C102.56 20.2543 102.766 20.3339 102.938 20.493C103.111 20.6521 103.23 20.8378 103.296 21.0499C103.376 21.2621 103.396 21.4809 103.356 21.7063C103.329 21.9317 103.23 22.1173 103.057 22.2632C102.752 22.5151 102.394 22.6477 101.983 22.661C101.586 22.6742 101.175 22.6809 100.75 22.6809C100.75 23.4101 100.744 24.1394 100.73 24.8687C100.73 25.598 100.737 26.3273 100.75 27.0566C100.75 27.3748 100.764 27.6996 100.79 28.0311C100.83 28.3626 100.81 28.6809 100.73 28.9858C100.664 29.2245 100.551 29.4101 100.392 29.5427C100.233 29.6886 100.054 29.7748 99.8553 29.8013C99.6564 29.8411 99.4508 29.8278 99.2387 29.7615C99.0265 29.7085 98.8276 29.6024 98.642 29.4433C98.5492 29.3505 98.4762 29.1914 98.4232 28.9659C98.3834 28.7405 98.3569 28.5019 98.3436 28.2499C98.3304 27.9582 98.3304 27.6466 98.3436 27.3151C98.3436 27.0499 98.3436 26.7052 98.3436 26.2809C98.3436 25.8566 98.337 25.419 98.3238 24.9682C98.3238 24.5041 98.3238 24.0665 98.3238 23.6555C98.3238 23.2444 98.3238 22.9195 98.3238 22.6809L97.4287 22.661Z" fill="white"/>
<path fill-rule="evenodd" clip-rule="evenodd" d="M1.00001 41.9265C-2.62184 8.20518 12.7476 2.83561 37.2519 1.16583C57.7403 -0.230314 78.296 -0.205371 98.8114 0.372442C104.836 0.54212 110.856 1.70246 116.715 3.40388C136.796 9.23496 128.574 41.1117 110.718 41.9837C76.3561 43.6619 39 45.5517 1.00001 41.9265Z" stroke="white" stroke-width="2"/>
<path d="M128 24.2842C127 31.2842 128 49.2842 109 51.2842C90 53.2842 14.1098 50.5362 7.55489 48.9102C1 47.2842 1 42.2842 1 42.2842" stroke="white" stroke-width="2"/>
<g opacity="0.8">
<path d="M9 42.2842L8 49.2842" stroke="white"/>
<path d="M14 42.2842L13 49.2842" stroke="white"/>
<path d="M19 43.2842L18 50.2842" stroke="white"/>
<path d="M24 43.2842L23 50.2842" stroke="white"/>
<path d="M29 43.2842L28 50.2842" stroke="white"/>
<path d="M34 43.2842L33 50.2842" stroke="white"/>
<path d="M39 44.2842L38 51.2842" stroke="white"/>
<path d="M44 44.2842L43 51.2842" stroke="white"/>
<path d="M49 43.2842L48 51.2842" stroke="white"/>
<path d="M54 43.2842L53 51.2842" stroke="white"/>
<path d="M59 43.2842L58 52.2842" stroke="white"/>
<path d="M64 43.2842L63 52.2842" stroke="white"/>
<path d="M69 43.2842L68 52.2842" stroke="white"/>
<path d="M74 43.2842L73 52.2842" stroke="white"/>
<path d="M79 43.2842L78 52.2842" stroke="white"/>
<path d="M84 43.2842L83 52.2842" stroke="white"/>
<path d="M89 43.2842L88 52.2842" stroke="white"/>
<path d="M94 43.2842L93 52.2842" stroke="white"/>
<path d="M99 42.2842L98 52.2842" stroke="white"/>
<path d="M104 42.2842L103 52.2842" stroke="white"/>
<path d="M109 42.2842L108 51.2842" stroke="white"/>
<path d="M114 41.2842L113 50.2842" stroke="white"/>
<path d="M119.5 38.7842L118 49.2842" stroke="white"/>
<path d="M123.5 34.7842L122 46.2842" stroke="white"/>
</g>
</g>
<defs>
<clipPath id="clip0">
<rect width="128" height="53" fill="white" transform="translate(0.473083)"/>
</clipPath>
</defs>
</svg>
