<svg width="16" height="16" viewBox="0 0 16 16" fill="none" xmlns="http://www.w3.org/2000/svg">
<path fill-rule="evenodd" clip-rule="evenodd" d="M7.99984 0C11.3015 0 13.9781 2.55761 13.9781 5.71258V9.90181L15.1259 11.3642C15.3614 11.6643 15.3993 12.0657 15.2238 12.4012C15.0482 12.7366 14.6894 12.9485 14.2969 12.9485H1.70274C1.31025 12.9485 0.951437 12.7366 0.775908 12.4012C0.600378 12.0657 0.638259 11.6643 0.873756 11.3642L2.02158 9.90181V5.71258C2.02158 2.55761 4.69814 0 7.99984 0ZM10.765 13.7102C10.5691 15.024 9.39177 16 8.00302 16C6.61427 16 5.43697 15.024 5.24106 13.7102H10.765ZM10.1552 4.31339C10.1552 3.97686 10.4407 3.70405 10.7929 3.70405C11.1143 3.70394 11.3856 3.93247 11.4258 4.23722L11.4306 4.31339V6.85511C11.4283 7.1752 11.1672 7.43904 10.8328 7.45909C10.4985 7.47915 10.2049 7.24859 10.1608 6.93127L10.1552 6.85511V4.31339Z" fill="#82888C"/>
</svg>
