<svg width="91" height="80" viewBox="0 0 91 80" fill="none" xmlns="http://www.w3.org/2000/svg">
<path fill-rule="evenodd" clip-rule="evenodd" d="M54.9014 80C76.4996 67.3218 91 43.8543 91 17C91 11.1469 90.3111 5.45468 89.0101 0H16C7.16344 0 0 7.16344 0 16V64C0 72.8366 7.16345 80 16 80H54.9014Z" fill="url(#paint0_linear)"/>
<path fill-rule="evenodd" clip-rule="evenodd" d="M3.0398 55.5578C3.6003 49.807 11.6509 44.4368 20.7219 45.4458C29.7928 46.4547 36.2293 42.1056 44.9694 41.1953C53.7095 40.285 59.2724 42.7023 66.5812 45.4458C73.89 48.1893 78.8012 53.9706 70.5717 61.8954C62.3423 69.8201 44.2132 64.1145 25.9694 67.3362C7.7256 70.558 2.4793 61.3085 3.0398 55.5578Z" fill="#FFE4DF" fill-opacity="0.16"/>
<path fill-rule="evenodd" clip-rule="evenodd" d="M21 17.8666L41 16.21C44.3137 15.9355 47 18.0646 47 20.9654V27.6504C47 30.5512 44.3137 33.3307 41 33.8585L21 37.0443C17.6863 37.5721 15 35.3137 15 32V24.3636C15 21.0499 17.6863 18.1411 21 17.8666Z" fill="url(#paint1_radial)"/>
<path fill-rule="evenodd" clip-rule="evenodd" d="M45.3636 34.7189C45.7653 34.6529 46.0909 34.8242 46.0909 35.1014C46.0909 35.3785 45.7653 35.6612 45.3636 35.7329L37.739 37.1429L40.3756 40.4466L38.9211 40.7953L36.285 37.4225L26.805 39.3293L24.1698 44.5626L22.7153 44.9568L25.351 39.6345L17.7273 41.2916C17.3256 41.3815 17 41.1289 17 40.7273C17 40.3256 17.3256 39.9324 17.7273 39.8493L45.3636 34.7189Z" fill="white" fill-opacity="0.6"/>
<path fill-rule="evenodd" clip-rule="evenodd" d="M31.3636 13.6866C31.9661 13.6467 32.4545 14.0507 32.4545 14.5889C32.4545 14.703 32.4326 14.8145 32.3923 14.9201L34.6364 14.711C35.038 14.6737 35.3636 14.917 35.3636 15.2544C35.3636 15.5919 35.038 15.9043 34.6364 15.9524L27.3636 16.8221C26.962 16.8701 26.6364 16.5835 26.6364 16.1818C26.6364 15.7802 26.962 15.4243 27.3636 15.3869L29.6077 15.1789C29.5674 15.0749 29.5454 14.9608 29.5454 14.8399C29.5454 14.2695 30.0339 13.7748 30.6364 13.7348L31.3636 13.6866Z" fill="white" fill-opacity="0.6"/>
<path d="M30.638 28.6964C30.4582 28.9533 30.1172 29.0352 29.9048 28.8908L29.8391 28.8342L28.528 27.3973L26.228 29.541C26.0635 29.6963 25.8381 29.7471 25.6625 29.6762L25.5906 29.6382L24.031 28.5836L22.8729 30.0601C22.7094 30.2699 22.4415 30.3504 22.2393 30.2622L22.1669 30.221C21.9839 30.0895 21.9494 29.8282 22.0732 29.6058L22.1271 29.5246L23.6134 27.6332C23.7749 27.4295 24.0387 27.3528 24.2404 27.4386L24.3128 27.4784L25.93 28.5803L28.308 26.3773C28.5036 26.1986 28.7789 26.1708 28.9565 26.299L29.0182 26.3542L30.237 27.6941L32.33 24.7518C32.4759 24.5493 32.7364 24.4572 32.9476 24.5216L33.0242 24.5532L35.915 26.0472L40.127 21.2009C40.2904 21.0177 40.5583 20.9526 40.7605 21.0355L40.8329 21.0735C41.0161 21.1934 41.0506 21.4243 40.9269 21.6187L40.873 21.6896L36.3603 26.8882C36.2105 27.0655 35.9709 27.1461 35.7741 27.0943L35.6928 27.0638L32.833 25.6018L30.638 28.6964Z" fill="#F98C79"/>
<path fill-rule="evenodd" clip-rule="evenodd" d="M21.5 32.4543L41.5 29.132C41.7761 29.0862 42 29.2437 42 29.484C42 29.7243 41.7761 29.9576 41.5 30.0052L21.5 33.4512C21.2239 33.4988 21 33.3135 21 33.0374C21 32.7612 21.2239 32.5002 21.5 32.4543Z" fill="#F98C79"/>
<path d="M10.2778 32.2222C11.3904 32.2222 12.2222 31.1779 12.2222 29.8889V29.1111C12.2222 27.822 11.3904 26.7778 10.2778 26.7778C9.16513 26.7778 8.33334 27.822 8.33334 29.1111V29.8889C8.33334 31.1779 9.17053 32.2222 10.2778 32.2222Z" fill="white"/>
<path d="M7.55554 36.1111H13V52.4444H7.55554V36.1111Z" fill="white"/>
<path d="M20 33.7778H9.61081C7.47651 33.7778 6 34.521 6 36.723V41.1455C6.01976 42.2205 6.81589 43.0896 7.80682 43.1111H13.6761V36.2347H17.7415C19.1022 36.2347 20 34.868 20 33.7778Z" fill="#FFD6D1"/>
<rect x="9.88889" y="45.4444" width="0.777778" height="7" fill="#FA8C7D"/>
<path fill-rule="evenodd" clip-rule="evenodd" d="M12.2222 28.0976C12.2222 28.0976 11.5048 26 9.90961 26C8.31438 26 7.18739 27.5279 7.18739 29.1809C7.18739 30.8339 7.06561 32.1345 6.7032 32.1345C6.34079 32.1345 8.14722 32.1675 8.7933 30.8686C9.43938 29.5698 9.64945 28.3783 10.2985 28.0976C10.9475 27.817 12.2222 28.0976 12.2222 28.0976Z" fill="#FFDDD8"/>
<rect x="39.5932" y="52.1667" width="1.16667" height="7" fill="#FFB1A5"/>
<rect x="53.1667" y="46.3333" width="1.16667" height="7" fill="#7AF0DF"/>
<ellipse cx="53.75" cy="53.3333" rx="2.91667" ry="1.16667" fill="#FFB1A5"/>
<path fill-rule="evenodd" clip-rule="evenodd" d="M56.3711 37.6197L53.5031 37.0235C52.8861 36.8952 52.2353 37.3054 52.0495 37.9397C52.0167 38.0519 52 38.1668 52 38.2807V46.8542C52 47.3464 52.3089 47.7569 52.772 47.8802L55.64 48.6437C56.2464 48.8052 56.9146 48.428 57.1326 47.8014C57.1781 47.6705 57.2014 47.5348 57.2014 47.4003V38.6594C57.2014 38.1447 56.864 37.7222 56.3711 37.6197Z" fill="url(#paint2_linear)"/>
<rect x="56.6667" y="38.1667" width="1.16667" height="7" rx="0.5" fill="#FFB1A5"/>
<path fill-rule="evenodd" clip-rule="evenodd" d="M50.8556 37.0383C50.526 36.2914 49.4565 36.32 49.1674 37.0835L47.2741 42.0831C47.113 42.5086 47.2617 42.9892 47.6351 43.2493V43.2493C48.1756 43.6258 48.9263 43.381 49.141 42.7582L50.8834 37.704C50.9583 37.4866 50.9484 37.2488 50.8556 37.0383V37.0383Z" fill="#FFBCBC"/>
<path d="M51.7222 34.2222C50.6096 34.2222 49.7778 33.1779 49.7778 31.8889V31.1111C49.7778 29.822 50.6096 28.7778 51.7222 28.7778C52.8349 28.7778 53.6667 29.822 53.6667 31.1111V31.8889C53.6667 33.1779 52.8295 34.2222 51.7222 34.2222Z" fill="white"/>
<path d="M54.4445 38.1111H49V53.2983C49 53.2983 49.6215 54.0592 51.2222 54.5921C52.823 55.125 54.4445 55.1107 54.4445 55.1107V38.1111Z" fill="white"/>
<path d="M49 36.6374C49.5202 35.2146 52.5611 35.3513 52.5611 35.3513C54.6954 35.3513 56 36.521 56 38.723V43.1456C55.9802 44.2205 55.1841 45.0896 54.1932 45.1111H48.3239V39.8308C48.3239 39.8308 48.3239 38.4867 49 36.6374Z" fill="#FFD6D1"/>
<path fill-rule="evenodd" clip-rule="evenodd" d="M52.1111 47.4444H51.3333L50.9488 54.5L51.4058 54.6427L52.1111 47.4444Z" fill="#FA8C7D"/>
<path fill-rule="evenodd" clip-rule="evenodd" d="M54.4444 55.1107C54.4444 55.1107 55.278 54.6515 55.6195 54.2879C55.961 53.9242 55.6195 51.0151 55.6195 51.0151L54.4444 50.8333V55.1107Z" fill="#FCF0EE"/>
<rect x="34.0734" y="45" width="1.5" height="10.5" rx="0.5" fill="#FFB1A5"/>
<rect x="59.5734" y="51" width="1.5" height="10.5" rx="0.5" fill="#FFB1A5"/>
<rect x="41.5734" y="43.5" width="1.5" height="10.5" rx="0.5" fill="#FFB1A5"/>
<rect x="68.5734" y="48" width="1.5" height="10.5" rx="0.5" fill="#FFB1A5"/>
<path fill-rule="evenodd" clip-rule="evenodd" d="M44.2669 42.2273L71.084 47.9307C72.0076 48.1271 73.0752 49.0026 72.7025 49.8701C72.6013 50.1056 72.3872 50.3065 71.9708 50.4503L64.8499 52.7157C63.4543 53.1255 60.8607 53.1332 59.1041 52.737L31.8793 45.9571C31.5053 45.8512 31.2836 45.6707 31.1564 45.4523C30.6633 44.6055 31.7835 43.6658 32.7506 43.5077L39.6269 42.383C39.7281 42.3664 39.8273 42.3415 39.9257 42.3126C41.2103 41.9347 43.0953 41.8911 44.2669 42.2273Z" fill="#F0AA7A"/>
<path fill-rule="evenodd" clip-rule="evenodd" d="M44.2669 40.7273L71.0284 47.4668C72.7559 47.8603 73.1983 48.5262 71.9708 48.9503L64.8499 51.2157C63.4543 51.6255 60.8607 51.6332 59.1041 51.237L31.8793 44.4571C30.64 44.1062 30.8624 43.4982 32.3243 43.0945L39.7788 40.8581C41.0629 40.4386 43.0498 40.3781 44.2669 40.7273Z" fill="#FFE1E1"/>
<path fill-rule="evenodd" clip-rule="evenodd" d="M39.7014 43.9761C39.7014 43.5349 39.4122 43.1458 38.9897 43.0186L35.7883 42.0546C35.1465 41.8613 34.5 42.3419 34.5 43.0121V51.9271C34.5 52.349 34.7647 52.7255 35.1617 52.8682L38.3631 54.0189C39.0147 54.2532 39.7014 53.7703 39.7014 53.0779V43.9761Z" fill="#F5FFFE"/>
<path fill-rule="evenodd" clip-rule="evenodd" d="M46.402 51.2052L39.7014 49.6011L39.7014 53.3333L40.5827 53.6667L42.4017 53.3333L44.7889 52.4376L46.402 51.2052Z" fill="#FFC6C0"/>
<path d="M39.7014 43.75C39.9877 43.75 40.2259 43.9564 40.2753 44.2285L40.2847 44.3333V52.7838C40.2847 53.0834 40.4457 53.1668 41.1994 53.0367C42.1909 52.8654 43.7416 52.2404 45.8223 51.1623C46.1083 51.014 46.4604 51.1258 46.6086 51.4118C46.7568 51.6978 46.6451 52.0499 46.3591 52.1981C44.1802 53.3272 42.5363 53.9897 41.398 54.1863C40.0874 54.4127 39.2052 53.9986 39.1241 52.9464L39.118 52.7838V44.3333C39.118 44.0112 39.3792 43.75 39.7014 43.75Z" fill="#FFB1A5"/>
<ellipse cx="40.1766" cy="59.1667" rx="2.91667" ry="1.16667" fill="#FFB1A5"/>
<path fill-rule="evenodd" clip-rule="evenodd" d="M55.8556 38.0383C55.526 37.2914 54.4565 37.32 54.1674 38.0835L52.2741 43.0831C52.113 43.5086 52.2617 43.9892 52.6351 44.2493V44.2493C53.1756 44.6258 53.9263 44.381 54.141 43.7582L55.8834 38.704C55.9583 38.4866 55.9484 38.2488 55.8556 38.0383V38.0383Z" fill="#FFBCBC"/>
<path fill-rule="evenodd" clip-rule="evenodd" d="M49.7778 31.1111C49.7778 31.1111 48.8684 30.5188 49.331 29.6428C49.7936 28.7668 50.3451 28.3457 51.1229 28.3457C51.9006 28.3457 52.9562 27.5679 53.4562 28.3457C53.9562 29.1235 53.6784 29.8296 53.9562 30.6432C54.234 31.4568 53.6667 33.4587 53.1667 33.4587C52.6667 33.4587 52.9818 32.2227 52.2222 32.2227C51.4626 32.2227 51.1756 30.6432 50.6938 30.6432C50.2119 30.6432 49.7778 31.1111 49.7778 31.1111Z" fill="#FFB1A5"/>
<defs>
<linearGradient id="paint0_linear" x1="-36.9243" y1="-35.6772" x2="-36.9243" y2="109.245" gradientUnits="userSpaceOnUse">
<stop stop-color="#FF8D91"/>
<stop offset="1" stop-color="#F78B70"/>
</linearGradient>
<radialGradient id="paint1_radial" cx="0" cy="0" r="1" gradientUnits="userSpaceOnUse" gradientTransform="translate(31 26.6535) rotate(90) scale(16.3891 35.7767)">
<stop stop-color="#FFBCB1"/>
<stop offset="1" stop-color="white"/>
</radialGradient>
<linearGradient id="paint2_linear" x1="53.0642" y1="37" x2="53.0642" y2="43.9014" gradientUnits="userSpaceOnUse">
<stop stop-color="#FBFFFF"/>
<stop offset="1" stop-color="#FFC6C0"/>
</linearGradient>
</defs>
</svg>
