<svg width="40" height="40" viewBox="0 0 40 40" fill="none" xmlns="http://www.w3.org/2000/svg">
<path fill-rule="evenodd" clip-rule="evenodd" d="M34.6329 17.3167H38.629C38.9853 17.3272 39.3302 17.1902 39.5823 16.9381C39.8344 16.686 39.9714 16.3411 39.961 15.9847V1.33257C39.9714 0.976203 39.8344 0.631311 39.5823 0.379215C39.3302 0.127119 38.9853 -0.0098683 38.629 0.000554114H1.33257C0.976208 -0.0098683 0.631316 0.127119 0.37922 0.379215C0.127124 0.631311 -0.00986306 0.976203 0.00055936 1.33257V15.9847C-0.00986307 16.3411 0.127124 16.686 0.37922 16.9381C0.631316 17.1902 0.976208 17.3272 1.33257 17.3167H5.32861V15.9847H1.33257V1.33257H38.629V15.9847H34.6329V17.3167ZM30.6369 3.9966V5.32861H29.3049V3.9966H30.6369ZM0.00055936 39.961H37.2969H39.961V31.9689C39.961 30.4976 38.7682 29.3049 37.2969 29.3049C35.8256 29.3049 34.6329 30.4976 34.6329 31.9689L33.3009 29.8776V21.3128C33.3009 19.8415 32.1082 18.6487 30.6369 18.6487C29.1656 18.6487 27.9729 19.8415 27.9729 21.3128V21.9788L26.6408 19.9808H13.3207L11.9887 21.9788V21.3128C11.9887 19.8415 10.796 18.6487 9.32466 18.6487C7.85335 18.6487 6.66063 19.8415 6.66063 21.3128V29.8776L5.32861 31.9689C5.32861 30.4976 4.13589 29.3049 2.66459 29.3049C1.19329 29.3049 0.00055936 30.4976 0.00055936 31.9689V39.961ZM2.66459 30.6369C3.40024 30.6369 3.9966 31.2332 3.9966 31.9689V33.9669L1.33257 37.963V31.9689C1.33257 31.2332 1.92894 30.6369 2.66459 30.6369ZM10.6567 21.3128C10.6567 20.5771 10.0603 19.9808 9.32466 19.9808C8.589 19.9808 7.99264 20.5771 7.99264 21.3128V27.9728L10.6567 23.9768V21.3128ZM30.6369 19.9808C31.3725 19.9808 31.9689 20.5771 31.9689 21.3128V27.9728L29.3049 23.9768V21.3128C29.3049 20.5771 29.9012 19.9808 30.6369 19.9808ZM25.3088 21.3128H14.6527L3.9966 38.629H35.9649L25.3088 21.3128ZM37.2969 30.6369C38.0326 30.6369 38.629 31.2332 38.629 31.9689V37.963L35.9649 33.9669V31.9689C35.9649 31.2332 36.5613 30.6369 37.2969 30.6369ZM37.2969 27.9728C35.8256 27.9728 34.6329 26.7801 34.6329 25.3088C34.6329 23.8375 35.8256 22.6448 37.2969 22.6448C38.7683 22.6448 39.961 23.8375 39.961 25.3088C39.9566 26.7783 38.7664 27.9685 37.2969 27.9728ZM35.9649 25.3088C35.9649 24.5732 36.5613 23.9768 37.2969 23.9768C37.6533 23.9664 37.9982 24.1034 38.2503 24.3555C38.5024 24.6076 38.6394 24.9525 38.629 25.3088C38.629 26.0445 38.0326 26.6408 37.2969 26.6408C36.5613 26.6408 35.9649 26.0445 35.9649 25.3088ZM33.3009 3.9966H31.9689V5.32861H33.3009V3.9966ZM30.6369 17.3167C29.1656 17.3167 27.9729 16.124 27.9729 14.6527C27.9729 13.1814 29.1656 11.9887 30.6369 11.9887C32.1082 11.9887 33.3009 13.1814 33.3009 14.6527C33.2965 16.1222 32.1064 17.3123 30.6369 17.3167ZM29.3049 14.6527C29.3049 13.9171 29.9012 13.3207 30.6369 13.3207C30.9932 13.3103 31.3381 13.4473 31.5902 13.6994C31.8423 13.9514 31.9793 14.2963 31.9689 14.6527C31.9689 15.3884 31.3725 15.9847 30.6369 15.9847C29.9012 15.9847 29.3049 15.3884 29.3049 14.6527ZM13.3207 4.6626C13.3208 4.29484 13.6189 3.99676 13.9867 3.99676C14.3545 3.99676 14.6526 4.29484 14.6527 4.6626V11.3227C14.6526 11.6904 14.3545 11.9885 13.9867 11.9885C13.6189 11.9885 13.3208 11.6904 13.3207 11.3227V4.6626ZM15.9847 8.65864V11.3227C15.9848 11.6904 16.283 11.9885 16.6507 11.9885C17.0185 11.9885 17.3166 11.6904 17.3167 11.3227V8.65864C17.3166 8.29088 17.0185 7.9928 16.6507 7.9928C16.283 7.9928 15.9848 8.29088 15.9847 8.65864ZM18.6488 11.3227V9.99066C18.6488 9.6229 18.947 9.32481 19.3148 9.32481C19.6825 9.32481 19.9807 9.6229 19.9808 9.99066V11.3227C19.9807 11.6904 19.6825 11.9885 19.3148 11.9885C18.947 11.9885 18.6488 11.6904 18.6488 11.3227ZM27.9729 3.9966H26.6408V5.32861H27.9729V3.9966ZM13.3207 15.9847H26.6408V17.3167H13.3207V15.9847ZM9.32466 17.3167C10.796 17.3167 11.9887 16.124 11.9887 14.6527C11.9843 13.1832 10.7941 11.9931 9.32466 11.9887C7.85335 11.9887 6.66063 13.1814 6.66063 14.6527C6.66063 16.124 7.85335 17.3167 9.32466 17.3167ZM7.99264 14.6527C7.99264 15.3884 8.589 15.9847 9.32466 15.9847C10.0603 15.9847 10.6567 15.3884 10.6567 14.6527C10.6567 13.9171 10.0603 13.3207 9.32466 13.3207C8.96829 13.3103 8.6234 13.4473 8.3713 13.6994C8.11921 13.9514 7.98222 14.2963 7.99264 14.6527ZM5.32861 25.3088C5.32861 23.8375 4.13589 22.6448 2.66459 22.6448C1.19511 22.6492 0.00494808 23.8393 0.00055936 25.3088C0.00055936 26.7801 1.19329 27.9728 2.66459 27.9728C4.13589 27.9728 5.32861 26.7801 5.32861 25.3088ZM2.66459 26.6408C3.40024 26.6408 3.9966 26.0445 3.9966 25.3088C3.9966 24.5732 3.40024 23.9768 2.66459 23.9768C1.92894 23.9768 1.33257 24.5732 1.33257 25.3088C1.32215 25.6652 1.45914 26.0101 1.71123 26.2622C1.96333 26.5143 2.30822 26.6513 2.66459 26.6408Z" fill="#333333"/>
</svg>
