<svg width="24" height="24" viewBox="0 0 24 24" fill="none" xmlns="http://www.w3.org/2000/svg">
<rect opacity="0.01" width="24" height="24" fill="black"/>
<path fill-rule="evenodd" clip-rule="evenodd" d="M19.8915 7.5135C20.4867 8.53473 21.4821 9.26033 22.6365 9.5145C22.8412 9.56278 22.9992 9.72549 23.0415 9.9315C23.313 11.2971 23.313 12.7029 23.0415 14.0685C23.0028 14.2764 22.8432 14.4407 22.6365 14.4855C21.4848 14.7361 20.4898 15.456 19.8915 16.4715C19.3121 17.4899 19.1974 18.7079 19.5765 19.8165C19.6376 20.0169 19.5726 20.2345 19.4115 20.3685C18.3331 21.2848 17.0914 21.9892 15.7515 22.4445C15.516 22.56 15.231 22.4895 15.0765 22.2795C14.2618 21.4222 13.1309 20.9368 11.9483 20.9368C10.7656 20.9368 9.63472 21.4222 8.82001 22.2795C8.71789 22.3853 8.57705 22.4449 8.43001 22.4445H8.25001C6.9305 21.9772 5.70965 21.2681 4.65001 20.3535C4.4889 20.2195 4.42387 20.0019 4.48501 19.8015C4.84201 18.6885 4.70551 17.478 4.11001 16.4715C3.51167 15.456 2.51674 14.7361 1.36501 14.4855C1.15835 14.4407 0.998714 14.2764 0.960007 14.0685C0.690007 12.7027 0.690007 11.2973 0.960007 9.9315C0.998714 9.72362 1.15835 9.55925 1.36501 9.5145C2.51995 9.26071 3.51594 8.53507 4.11151 7.5135C4.7021 6.51206 4.83846 5.30656 4.48651 4.1985C4.42537 3.99806 4.4904 3.7805 4.65151 3.6465C5.70932 2.72564 6.93042 2.0113 8.25151 1.5405C8.47481 1.44896 8.73174 1.51625 8.88151 1.7055C9.69375 2.55959 10.8229 3.04001 12.0015 3.033C13.2055 3.04904 14.3603 2.55607 15.1815 1.6755C15.3287 1.52274 15.5515 1.46998 15.7515 1.5405C17.071 2.00774 18.2919 2.71685 19.3515 3.6315C19.5126 3.76551 19.5776 3.98306 19.5165 4.1835C19.16 5.2961 19.2965 6.50804 19.8915 7.5135ZM18.6315 15.7845C19.3021 14.6639 20.3751 13.8414 21.6315 13.485H21.63L21.66 13.47C21.825 12.4818 21.825 11.4732 21.66 10.485C20.4036 10.1286 19.3306 9.3061 18.66 8.1855C18.0158 7.08098 17.8223 5.77054 18.12 4.527C17.3284 3.89501 16.4426 3.39091 15.495 3.033C14.5441 3.9121 13.295 4.39777 12 4.392C10.7064 4.39041 9.45992 3.90575 8.50501 3.033C7.55769 3.39091 6.67204 3.89447 5.88001 4.5255C6.18901 5.7705 6.00751 7.086 5.37001 8.2005C4.69937 9.3211 3.62638 10.1436 2.37001 10.5C2.2048 11.4881 2.2048 12.4969 2.37001 13.485C3.61272 13.8549 4.66912 14.6819 5.32651 15.7995C5.98201 16.9005 6.18151 18.213 5.88151 19.458C6.67339 20.0892 7.55908 20.5928 8.50651 20.9505C9.44074 20.0288 10.6896 19.4954 12.0015 19.458C13.3153 19.4863 14.5675 20.021 15.4965 20.9505C16.4437 20.5924 17.3293 20.0888 18.1215 19.458C17.8108 18.2136 17.9935 16.8972 18.6315 15.7845Z" fill="white"/>
<path fill-rule="evenodd" clip-rule="evenodd" d="M7.5 11.9925C7.5 9.51899 9.516 7.51349 12 7.51349H12.0015C13.1936 7.5129 14.3374 7.98424 15.183 8.82449C16.0265 9.66303 16.501 10.8031 16.5015 11.9925C16.5015 14.466 14.487 16.4715 12 16.4715C10.8093 16.4743 9.66628 16.004 8.82237 15.164C7.97845 14.324 7.50278 13.1832 7.5 11.9925ZM9 11.9925C9 13.641 10.344 14.979 12 14.979H12.0015C12.7963 14.9792 13.5588 14.6648 14.1225 14.1045C14.685 13.5435 15 12.7845 15 11.9925C15 10.3425 13.6575 9.00749 12 9.00749C10.344 9.00749 9 10.3425 9 11.9925Z" fill="white"/>
</svg>
