<svg width="310" height="224" viewBox="0 0 310 224" fill="none" xmlns="http://www.w3.org/2000/svg">
<path fill-rule="evenodd" clip-rule="evenodd" d="M161.972 223.154C233.283 223.154 315.732 192.257 309.686 126.954C303.64 61.6506 233.283 13 161.972 13C90.6603 13 0 95.106 0 165.334C0 235.563 90.6603 223.154 161.972 223.154Z" fill="url(#paint0_linear)"/>
<mask id="mask0" mask-type="alpha" maskUnits="userSpaceOnUse" x="5" y="67" width="282" height="80">
<path d="M271 67H21C12.1634 67 5 74.1634 5 83V131C5 139.837 12.1634 147 21 147H271C279.837 147 287 139.837 287 131V83C287 74.1634 279.837 67 271 67Z" fill="white"/>
</mask>
<g mask="url(#mask0)">
<g filter="url(#filter0_d)">
<path d="M271 67H21C12.1634 67 5 74.1634 5 83V131C5 139.837 12.1634 147 21 147H271C279.837 147 287 139.837 287 131V83C287 74.1634 279.837 67 271 67Z" fill="black"/>
</g>
<path d="M271 67H21C12.1634 67 5 74.1634 5 83V131C5 139.837 12.1634 147 21 147H271C279.837 147 287 139.837 287 131V83C287 74.1634 279.837 67 271 67Z" fill="white"/>
<path d="M12 154C52.3168 154 85 121.317 85 81C85 40.6832 52.3168 8 12 8C-28.3168 8 -61 40.6832 -61 81C-61 121.317 -28.3168 154 12 154Z" fill="url(#paint1_linear)"/>
</g>
<path d="M87.2622 96.0859C87.606 96.0859 87.8101 95.8711 87.8101 95.5112V90.2959H87.8477L90.0122 95.5112C90.1357 95.812 90.3345 95.9517 90.6353 95.9517C90.936 95.9517 91.1294 95.812 91.2583 95.5005L93.4175 90.2959H93.4551V95.5112C93.4551 95.8711 93.6646 96.0859 94.0083 96.0859C94.3467 96.0859 94.5562 95.8711 94.5562 95.5112V88.9263C94.5562 88.4536 94.2607 88.1636 93.7935 88.1636C93.3745 88.1636 93.1274 88.3516 92.9448 88.7974L90.6567 94.3672H90.6138L88.3203 88.7974C88.1377 88.3462 87.896 88.1636 87.4878 88.1636C87.0098 88.1636 86.7144 88.459 86.7144 88.9263V95.5112C86.7144 95.8711 86.9185 96.0859 87.2622 96.0859ZM98.2944 96.1074C99.3472 96.1074 100.169 95.6831 100.54 94.9419C100.588 94.8291 100.62 94.7217 100.62 94.6304C100.62 94.3403 100.416 94.1577 100.137 94.1577C99.9702 94.1577 99.8521 94.2168 99.7285 94.3618C99.2988 94.9473 98.9014 95.1675 98.2676 95.1675C97.3438 95.1675 96.7637 94.5229 96.7637 93.4917V93.4648H100.18C100.54 93.4648 100.754 93.25 100.754 92.874C100.754 91.3325 99.7178 90.2476 98.2139 90.2476C96.6133 90.2476 95.5928 91.4077 95.5928 93.2017C95.5928 95.0278 96.5918 96.1074 98.2944 96.1074ZM96.769 92.6538C96.8281 91.7729 97.4082 91.1821 98.2085 91.1821C99.0142 91.1821 99.5674 91.7676 99.5942 92.6538H96.769ZM104.106 96.1074C105.159 96.1074 105.98 95.6831 106.351 94.9419C106.399 94.8291 106.432 94.7217 106.432 94.6304C106.432 94.3403 106.228 94.1577 105.948 94.1577C105.782 94.1577 105.664 94.2168 105.54 94.3618C105.11 94.9473 104.713 95.1675 104.079 95.1675C103.155 95.1675 102.575 94.5229 102.575 93.4917V93.4648H105.991C106.351 93.4648 106.566 93.25 106.566 92.874C106.566 91.3325 105.529 90.2476 104.025 90.2476C102.425 90.2476 101.404 91.4077 101.404 93.2017C101.404 95.0278 102.403 96.1074 104.106 96.1074ZM102.581 92.6538C102.64 91.7729 103.22 91.1821 104.02 91.1821C104.826 91.1821 105.379 91.7676 105.406 92.6538H102.581ZM107.807 94.6465C107.807 95.5811 108.29 96.0483 109.241 96.0483H109.3C109.869 96.0483 110.138 95.8711 110.138 95.522C110.138 95.248 109.971 95.1138 109.638 95.0815L109.547 95.0762C109.128 95.0439 108.972 94.8398 108.972 94.3887V91.2681H109.633C109.934 91.2681 110.116 91.0962 110.116 90.8115C110.116 90.5269 109.934 90.3496 109.633 90.3496H108.972V89.5117C108.972 89.1411 108.741 88.894 108.392 88.894C108.038 88.894 107.807 89.1411 107.807 89.5117V90.3496H107.398C107.098 90.3496 106.915 90.5215 106.915 90.8115C106.915 91.0962 107.098 91.2681 107.398 91.2681H107.807V94.6465ZM111.62 89.4956C111.996 89.4956 112.297 89.1948 112.297 88.8296C112.297 88.459 111.996 88.1689 111.62 88.1689C111.25 88.1689 110.949 88.459 110.949 88.8296C110.949 89.1948 111.25 89.4956 111.62 89.4956ZM111.62 96.1021C111.969 96.1021 112.2 95.8604 112.2 95.4897V90.8652C112.2 90.4893 111.969 90.2476 111.62 90.2476C111.271 90.2476 111.04 90.4893 111.04 90.8652V95.4897C111.04 95.8604 111.271 96.1021 111.62 96.1021ZM113.967 96.1021C114.306 96.1021 114.547 95.8711 114.547 95.4897V92.7075C114.547 91.832 115.074 91.252 115.89 91.252C116.696 91.252 117.093 91.7192 117.093 92.5679V95.4897C117.093 95.8711 117.335 96.1021 117.673 96.1021C118.017 96.1021 118.259 95.8711 118.259 95.4897V92.3423C118.259 91.0479 117.544 90.2529 116.298 90.2529C115.428 90.2529 114.837 90.6396 114.531 91.2842H114.504V90.8384C114.504 90.4785 114.273 90.2476 113.94 90.2476C113.602 90.2476 113.387 90.4785 113.387 90.833V95.4897C113.387 95.8711 113.624 96.1021 113.967 96.1021ZM121.75 98.127C123.431 98.1431 124.457 97.2407 124.457 95.8442V90.8438C124.457 90.4678 124.21 90.2476 123.877 90.2476C123.544 90.2476 123.292 90.4678 123.292 90.8438V91.3003H123.27C122.926 90.6611 122.303 90.2583 121.503 90.2583C120.042 90.2583 119.129 91.3594 119.129 93.1265C119.129 94.8721 120.053 95.9839 121.476 95.9839C122.282 95.9839 122.948 95.5811 123.265 94.9688H123.292V95.8657C123.292 96.6553 122.717 97.1924 121.771 97.1816C121.218 97.1709 120.821 96.9614 120.359 96.478C120.203 96.3223 120.09 96.2632 119.913 96.2632C119.618 96.2632 119.419 96.4565 119.419 96.7251C119.419 96.8594 119.451 96.9775 119.526 97.1064C119.913 97.7188 120.724 98.1162 121.75 98.127ZM121.788 95.0386C120.896 95.0386 120.316 94.3135 120.316 93.1318C120.316 91.9556 120.896 91.2144 121.788 91.2144C122.695 91.2144 123.297 91.9771 123.297 93.1372C123.297 94.2974 122.695 95.0386 121.788 95.0386ZM128.577 96.1021C128.942 96.1021 129.178 95.8657 129.178 95.479V93.019H130.859L132.315 95.6831C132.492 96 132.637 96.1021 132.917 96.1021C133.266 96.1021 133.529 95.8657 133.529 95.5488C133.529 95.4146 133.497 95.3018 133.4 95.1353L132.089 92.8203C133.019 92.4927 133.566 91.6548 133.566 90.6182C133.566 89.1733 132.573 88.2495 130.978 88.2495H128.577C128.201 88.2495 127.975 88.4858 127.975 88.8726V95.479C127.975 95.8657 128.206 96.1021 128.577 96.1021ZM129.178 92.0469V89.2593H130.833C131.762 89.2593 132.326 89.7856 132.326 90.6504C132.326 91.5366 131.794 92.0469 130.865 92.0469H129.178ZM136.999 96.1074C138.615 96.1074 139.679 94.9956 139.679 93.1748C139.679 91.3594 138.61 90.2476 136.999 90.2476C135.387 90.2476 134.318 91.3594 134.318 93.1748C134.318 94.9956 135.382 96.1074 136.999 96.1074ZM136.999 95.1514C136.091 95.1514 135.5 94.4316 135.5 93.1748C135.5 91.9233 136.091 91.2036 136.999 91.2036C137.906 91.2036 138.497 91.9233 138.497 93.1748C138.497 94.4316 137.912 95.1514 136.999 95.1514ZM143.003 96.1074C144.62 96.1074 145.684 94.9956 145.684 93.1748C145.684 91.3594 144.615 90.2476 143.003 90.2476C141.392 90.2476 140.323 91.3594 140.323 93.1748C140.323 94.9956 141.387 96.1074 143.003 96.1074ZM143.003 95.1514C142.096 95.1514 141.505 94.4316 141.505 93.1748C141.505 91.9233 142.096 91.2036 143.003 91.2036C143.911 91.2036 144.502 91.9233 144.502 93.1748C144.502 94.4316 143.917 95.1514 143.003 95.1514ZM147.161 96.1021C147.51 96.1021 147.741 95.8604 147.741 95.4897V92.5088C147.741 91.7837 148.229 91.2466 148.917 91.2466C149.572 91.2466 149.986 91.6602 149.986 92.3101V95.4897C149.986 95.8604 150.206 96.1021 150.555 96.1021C150.904 96.1021 151.125 95.8604 151.125 95.4897V92.4712C151.125 91.7568 151.603 91.2466 152.29 91.2466C152.978 91.2466 153.37 91.6655 153.37 92.396V95.4897C153.37 95.8604 153.601 96.1021 153.95 96.1021C154.299 96.1021 154.535 95.8604 154.535 95.4897V92.1167C154.535 90.9941 153.805 90.2529 152.688 90.2529C151.882 90.2529 151.216 90.6719 150.926 91.3594H150.899C150.673 90.6558 150.104 90.2529 149.32 90.2529C148.557 90.2529 147.966 90.6719 147.714 91.3003H147.687V90.8384C147.687 90.4678 147.456 90.2476 147.134 90.2476C146.806 90.2476 146.581 90.4731 146.581 90.8384V95.4897C146.581 95.8604 146.812 96.1021 147.161 96.1021Z" fill="#30E9CF"/>
<path d="M89.877 112.92V125H91.918V110.762H89.877L87.8555 112.236V114.404L89.877 112.92ZM96.2539 125H104.369V122.959H98.9297L103.51 117.217C104.083 116.488 104.369 115.654 104.369 114.717C104.356 113.545 103.962 112.578 103.188 111.816C102.426 111.048 101.433 110.658 100.209 110.645C99.1152 110.658 98.194 111.042 97.4453 111.797C96.7031 112.572 96.306 113.551 96.2539 114.736H98.2852C98.3568 114.085 98.5846 113.581 98.9688 113.223C99.3398 112.865 99.8053 112.686 100.365 112.686C100.997 112.699 101.485 112.904 101.83 113.301C102.162 113.698 102.328 114.163 102.328 114.697C102.328 114.899 102.302 115.114 102.25 115.342C102.172 115.583 102.025 115.843 101.811 116.123L96.2539 123.076V125ZM106.596 125H108.637V122.959H106.596V125ZM116.82 120.898C116.781 122.337 116.114 123.063 114.818 123.076C113.516 123.063 112.852 122.337 112.826 120.898V114.863C112.852 113.438 113.516 112.712 114.818 112.686C116.114 112.712 116.781 113.438 116.82 114.863V120.898ZM110.785 121.016C110.798 122.324 111.218 123.333 112.045 124.043C112.82 124.746 113.744 125.104 114.818 125.117C115.925 125.104 116.866 124.746 117.641 124.043C118.428 123.333 118.835 122.324 118.861 121.016V114.736C118.835 113.421 118.428 112.409 117.641 111.699C116.866 110.996 115.925 110.645 114.818 110.645C113.744 110.645 112.82 110.996 112.045 111.699C111.218 112.409 110.798 113.421 110.785 114.736V121.016ZM120.277 125H128.393V122.959H122.953L127.533 117.217C128.106 116.488 128.393 115.654 128.393 114.717C128.38 113.545 127.986 112.578 127.211 111.816C126.449 111.048 125.456 110.658 124.232 110.645C123.139 110.658 122.217 111.042 121.469 111.797C120.727 112.572 120.329 113.551 120.277 114.736H122.309C122.38 114.085 122.608 113.581 122.992 113.223C123.363 112.865 123.829 112.686 124.389 112.686C125.02 112.699 125.508 112.904 125.854 113.301C126.186 113.698 126.352 114.163 126.352 114.697C126.352 114.899 126.326 115.114 126.273 115.342C126.195 115.583 126.049 115.843 125.834 116.123L120.277 123.076V125Z" fill="#13C8AF"/>
<path fill-rule="evenodd" clip-rule="evenodd" d="M5.07056 119.818C5.63107 114.067 13.6817 108.697 22.7526 109.706C31.8236 110.714 38.2601 106.365 47.0001 105.455C55.7402 104.545 61.3031 106.962 68.612 109.706C75.9208 112.449 80.832 118.23 72.6025 126.155C64.373 134.08 46.2439 128.374 28.0001 131.596C9.75636 134.818 4.51006 125.568 5.07056 119.818Z" fill="white" fill-opacity="0.24"/>
<path fill-rule="evenodd" clip-rule="evenodd" d="M15 85.8665L35 84.2099C38.3137 83.9354 41 86.0645 41 88.9653V95.6502C41 98.5511 38.3137 101.331 35 101.858L15 105.044C11.6863 105.572 9 103.314 9 99.9999V92.3635C9 89.0498 11.6863 86.141 15 85.8665Z" fill="url(#paint2_radial)"/>
<path fill-rule="evenodd" clip-rule="evenodd" d="M39.3636 102.719C39.7653 102.653 40.0909 102.824 40.0909 103.101C40.0909 103.378 39.7653 103.661 39.3636 103.733L31.739 105.143L34.3756 108.446L32.9211 108.795L30.285 105.422L20.805 107.329L18.1699 112.562L16.7153 112.957L19.351 107.634L11.7273 109.291C11.3256 109.381 11 109.129 11 108.727C11 108.325 11.3256 107.932 11.7273 107.849L39.3636 102.719Z" fill="white" fill-opacity="0.6"/>
<path fill-rule="evenodd" clip-rule="evenodd" d="M25.3635 81.6866C25.966 81.6466 26.4544 82.0506 26.4544 82.5889C26.4544 82.7029 26.4325 82.8144 26.3922 82.92L28.6362 82.711C29.0379 82.6736 29.3635 82.9169 29.3635 83.2543C29.3635 83.5918 29.0379 83.9043 28.6362 83.9523L21.3635 84.822C20.9618 84.8701 20.6362 84.5834 20.6362 84.1817C20.6362 83.7801 20.9618 83.4242 21.3635 83.3869L23.6076 83.1788C23.5673 83.0748 23.5453 82.9607 23.5453 82.8398C23.5453 82.2695 24.0337 81.7747 24.6362 81.7348L25.3635 81.6866Z" fill="white" fill-opacity="0.6"/>
<path d="M24.638 96.6964C24.4582 96.9533 24.1172 97.0352 23.9048 96.8908L23.8391 96.8342L22.528 95.3973L20.228 97.541C20.0635 97.6963 19.8381 97.7471 19.6625 97.6762L19.5906 97.6382L18.031 96.5836L16.8729 98.0601C16.7094 98.2699 16.4415 98.3504 16.2393 98.2622L16.1669 98.221C15.9839 98.0895 15.9494 97.8282 16.0732 97.6058L16.1271 97.5246L17.6134 95.6332C17.7749 95.4295 18.0387 95.3528 18.2404 95.4386L18.3128 95.4784L19.93 96.5803L22.308 94.3773C22.5036 94.1986 22.7789 94.1708 22.9565 94.299L23.0182 94.3542L24.237 95.6941L26.33 92.7518C26.4759 92.5493 26.7364 92.4572 26.9476 92.5216L27.0242 92.5532L29.915 94.0472L34.127 89.2009C34.2904 89.0177 34.5583 88.9526 34.7605 89.0355L34.8329 89.0735C35.0161 89.1934 35.0506 89.4243 34.9269 89.6187L34.873 89.6896L30.3603 94.8882C30.2105 95.0655 29.9709 95.1461 29.7741 95.0943L29.6928 95.0638L26.833 93.6018L24.638 96.6964Z" fill="#31F4D8"/>
<path fill-rule="evenodd" clip-rule="evenodd" d="M15.5 100.454L35.5 97.132C35.7761 97.0861 36 97.2437 36 97.4839C36 97.7242 35.7761 97.9575 35.5 98.0051L15.5 101.451C15.2239 101.499 15 101.313 15 101.037C15 100.761 15.2239 100.5 15.5 100.454Z" fill="#31F4D8"/>
<mask id="mask1" mask-type="alpha" maskUnits="userSpaceOnUse" x="11" y="102" width="7" height="11">
<path d="M11.2788 102.232H17.3458V112.308H11.2788V102.232Z" fill="white"/>
</mask>
<g mask="url(#mask1)">
<path fill-rule="evenodd" clip-rule="evenodd" d="M14.3647 102.477C16.7026 101.371 18.096 104.271 16.9203 105.886C15.4854 107.857 14.7504 110.124 14.3411 110.807C13.9958 111.384 13.05 112.789 11.9111 112.141C10.8629 111.545 11.4342 109.206 11.4342 109.206C11.4342 109.206 11.4805 103.841 14.3647 102.477Z" fill="url(#paint3_radial)"/>
</g>
<path fill-rule="evenodd" clip-rule="evenodd" d="M15.6886 111.772C14.7896 112.825 13.4924 114.945 12.6796 114.203C12.1871 113.753 12.8456 111.622 14.648 110.463C16.1812 109.477 16.5876 110.718 15.6886 111.772Z" fill="url(#paint4_radial)"/>
<path fill-rule="evenodd" clip-rule="evenodd" d="M7.33255 111.691C6.53773 110.618 6.24752 109.079 7.13468 108.685C7.98526 108.306 9.39422 109.238 10.0468 111.031C10.6994 112.823 11.076 114.112 10.4376 114.337C9.39022 114.704 8.38237 113.107 7.33255 111.691Z" fill="url(#paint5_radial)"/>
<path fill-rule="evenodd" clip-rule="evenodd" d="M7.08615 104.461C7.42801 104.231 7.8581 104.179 8.2505 104.304C8.79815 104.48 9.62922 105.002 10.4518 106.501C11.5256 108.458 12.0847 110.604 11.9742 111.963C11.9019 112.852 10.8069 113.235 10.1943 112.587C9.91296 112.289 9.61529 111.831 9.32404 111.135C8.15194 108.334 7.0561 106.578 6.92541 106.402C6.57673 105.932 6.32742 104.972 7.08615 104.461Z" fill="url(#paint6_radial)"/>
<path d="M9.34579 111.977C9.36921 111.955 9.4063 111.955 9.42863 111.979L9.43935 111.99L9.44747 111.999C9.46224 112.016 9.47931 112.036 9.49847 112.058C9.55294 112.123 9.6135 112.201 9.67862 112.291C9.86421 112.548 10.0496 112.855 10.2226 113.21C10.7161 114.226 11.0121 115.431 11.0121 116.823C11.0121 116.856 10.9859 116.882 10.9535 116.882C10.9212 116.882 10.8949 116.856 10.8949 116.823C10.8949 115.45 10.6032 114.261 10.1172 113.262C9.94728 112.912 9.76536 112.611 9.58362 112.36C9.52391 112.277 9.46829 112.205 9.41804 112.145L9.40868 112.134C9.39442 112.117 9.38144 112.102 9.36982 112.088L9.35513 112.072C9.34968 112.066 9.34589 112.062 9.34383 112.06C9.32149 112.036 9.32237 111.999 9.34579 111.977Z" fill="#253369"/>
<path d="M13.7723 112.387C13.7917 112.361 13.8284 112.356 13.8543 112.375C13.8802 112.394 13.8856 112.431 13.8662 112.457C13.6528 112.743 13.4559 113.05 13.2747 113.376C12.8919 114.064 12.5959 114.803 12.3761 115.541C12.2993 115.8 12.2374 116.04 12.1893 116.255L12.1795 116.299C12.168 116.351 12.1581 116.399 12.1496 116.442L12.1442 116.471L12.1344 116.524C12.1291 116.556 12.0989 116.577 12.0669 116.572C12.035 116.566 12.0135 116.536 12.0189 116.504L12.0222 116.485C12.025 116.47 12.0283 116.452 12.0323 116.432L12.042 116.383C12.0514 116.336 12.0624 116.285 12.0749 116.229L12.0855 116.182C12.1326 115.977 12.1917 115.75 12.2638 115.508C12.4858 114.762 12.7849 114.016 13.1723 113.319C13.3559 112.989 13.5557 112.677 13.7723 112.387Z" fill="#253369"/>
<path d="M14.7963 105.077C14.8187 105.098 14.8203 105.133 14.8006 105.157L14.798 105.159C14.7969 105.161 14.7944 105.163 14.7907 105.167L14.7763 105.183L14.7679 105.192C14.7427 105.22 14.7133 105.254 14.6802 105.294C14.5854 105.407 14.4795 105.544 14.3654 105.704C14.0389 106.161 13.7121 106.711 13.4071 107.356C12.8991 108.429 12.5035 109.653 12.2637 111.03C11.9726 112.701 11.9244 114.526 12.1627 116.507C12.1666 116.539 12.1436 116.568 12.1115 116.572C12.0794 116.576 12.0502 116.553 12.0463 116.521C11.8067 114.529 11.8552 112.692 12.1483 111.009C12.3899 109.623 12.7888 108.389 13.3011 107.306C13.6093 106.655 13.9396 106.098 14.27 105.636L14.2957 105.6C14.3975 105.459 14.4928 105.336 14.5795 105.232L14.5903 105.219C14.6215 105.181 14.6495 105.149 14.674 105.121L14.6806 105.114C14.6883 105.106 14.6952 105.098 14.7012 105.091L14.7134 105.078C14.7358 105.055 14.7729 105.054 14.7963 105.077Z" fill="#253369"/>
<path d="M9.72452 108.551C9.7522 108.534 9.78823 108.543 9.805 108.571L9.81089 108.581C9.81557 108.589 9.82108 108.598 9.82739 108.609L9.83658 108.625C9.8523 108.653 9.86996 108.685 9.88941 108.72L9.90552 108.75C9.96511 108.861 10.0304 108.99 10.1002 109.135L10.1097 109.155C10.3371 109.631 10.5645 110.189 10.7766 110.822C11.3706 112.595 11.7319 114.607 11.7454 116.823C11.7456 116.855 11.7195 116.881 11.6872 116.882C11.6548 116.882 11.6284 116.856 11.6282 116.823C11.6148 114.621 11.2556 112.621 10.6655 110.859C10.4588 110.242 10.2376 109.698 10.0162 109.231L10.0039 109.205C9.92828 109.047 9.85786 108.909 9.79434 108.791L9.77521 108.756C9.75686 108.722 9.74034 108.693 9.7258 108.668L9.71889 108.656L9.70478 108.632C9.68801 108.604 9.69685 108.568 9.72452 108.551Z" fill="#253369"/>
<path fill-rule="evenodd" clip-rule="evenodd" d="M7.87231 105.578C7.88391 105.717 7.7812 105.838 7.64292 105.85C7.50461 105.861 7.38311 105.759 7.3715 105.62C7.3599 105.482 7.46261 105.361 7.60092 105.349C7.7392 105.337 7.8607 105.44 7.87231 105.578Z" fill="white"/>
<path fill-rule="evenodd" clip-rule="evenodd" d="M10.0066 106.651C10.0182 106.789 9.9155 106.911 9.77719 106.923C9.63889 106.934 9.51739 106.831 9.50578 106.693C9.49418 106.555 9.59689 106.433 9.73519 106.422C9.87347 106.41 9.995 106.513 10.0066 106.651Z" fill="white"/>
<path fill-rule="evenodd" clip-rule="evenodd" d="M9.64876 109.508C9.66205 109.666 9.54443 109.805 9.38605 109.819C9.22767 109.832 9.08852 109.714 9.07524 109.556C9.06195 109.398 9.17957 109.258 9.33795 109.245C9.49631 109.232 9.63546 109.349 9.64876 109.508Z" fill="white"/>
<path fill-rule="evenodd" clip-rule="evenodd" d="M16.2045 105.239C16.2045 105.464 16.0224 105.646 15.7976 105.646C15.5728 105.646 15.3906 105.464 15.3906 105.239C15.3906 105.014 15.5728 104.832 15.7976 104.832C16.0224 104.832 16.2045 105.014 16.2045 105.239Z" fill="white"/>
<path fill-rule="evenodd" clip-rule="evenodd" d="M12.9287 106.482C12.9287 106.706 12.7465 106.889 12.5217 106.889C12.2969 106.889 12.1147 106.706 12.1147 106.482C12.1147 106.257 12.2969 106.075 12.5217 106.075C12.7465 106.075 12.9287 106.257 12.9287 106.482Z" fill="white"/>
<path fill-rule="evenodd" clip-rule="evenodd" d="M13.9896 109.244C13.9896 109.338 13.9134 109.414 13.8195 109.414C13.7256 109.414 13.6494 109.338 13.6494 109.244C13.6494 109.15 13.7256 109.074 13.8195 109.074C13.9134 109.074 13.9896 109.15 13.9896 109.244Z" fill="white"/>
<path fill-rule="evenodd" clip-rule="evenodd" d="M15.215 111.419C15.215 111.558 15.1024 111.671 14.9637 111.671C14.8249 111.671 14.7124 111.558 14.7124 111.419C14.7124 111.281 14.8249 111.168 14.9637 111.168C15.1024 111.168 15.215 111.281 15.215 111.419Z" fill="white"/>
<mask id="mask2" mask-type="alpha" maskUnits="userSpaceOnUse" x="8" y="115" width="7" height="5">
<path d="M8.67139 115.039H14.7317V119.73H8.67139V115.039Z" fill="white"/>
</mask>
<g mask="url(#mask2)">
<path fill-rule="evenodd" clip-rule="evenodd" d="M14.234 119.73H9.16917C8.89539 119.73 8.67139 119.506 8.67139 119.232V115.537C8.67139 115.263 8.89539 115.039 9.16917 115.039H14.234C14.5077 115.039 14.7317 115.263 14.7317 115.537V119.232C14.7317 119.506 14.5077 119.73 14.234 119.73Z" fill="#80F5E5"/>
</g>
<path d="M37.7599 118.167H36.5933V125.167H37.7599V118.167Z" fill="#7AF0DF"/>
<path d="M51.3337 112.333H50.167V119.333H51.3337V112.333Z" fill="#7AF0DF"/>
<path d="M50.7502 120.5C52.361 120.5 53.6668 119.978 53.6668 119.333C53.6668 118.689 52.361 118.167 50.7502 118.167C49.1393 118.167 47.8335 118.689 47.8335 119.333C47.8335 119.978 49.1393 120.5 50.7502 120.5Z" fill="#7AF0DF"/>
<path fill-rule="evenodd" clip-rule="evenodd" d="M53.3711 103.62L50.5031 103.023C49.8861 102.895 49.2353 103.305 49.0495 103.94C49.0167 104.052 49 104.167 49 104.281V112.854C49 113.346 49.3089 113.757 49.772 113.88L52.64 114.644C53.2464 114.805 53.9146 114.428 54.1326 113.801C54.1781 113.671 54.2014 113.535 54.2014 113.4V104.659C54.2014 104.145 53.864 103.722 53.3711 103.62Z" fill="url(#paint7_linear)"/>
<path d="M54.3332 104.167H54.1665C53.8904 104.167 53.6665 104.391 53.6665 104.667V110.667C53.6665 110.943 53.8904 111.167 54.1665 111.167H54.3332C54.6093 111.167 54.8332 110.943 54.8332 110.667V104.667C54.8332 104.391 54.6093 104.167 54.3332 104.167Z" fill="#80F5E5"/>
<path d="M32.0732 111H31.5732C31.2971 111 31.0732 111.224 31.0732 111.5V121C31.0732 121.276 31.2971 121.5 31.5732 121.5H32.0732C32.3494 121.5 32.5732 121.276 32.5732 121V111.5C32.5732 111.224 32.3494 111 32.0732 111Z" fill="#7AF0DF"/>
<path d="M57.5732 117H57.0732C56.7971 117 56.5732 117.224 56.5732 117.5V127C56.5732 127.276 56.7971 127.5 57.0732 127.5H57.5732C57.8494 127.5 58.0732 127.276 58.0732 127V117.5C58.0732 117.224 57.8494 117 57.5732 117Z" fill="#7AF0DF"/>
<path d="M39.5732 109.5H39.0732C38.7971 109.5 38.5732 109.724 38.5732 110V119.5C38.5732 119.776 38.7971 120 39.0732 120H39.5732C39.8494 120 40.0732 119.776 40.0732 119.5V110C40.0732 109.724 39.8494 109.5 39.5732 109.5Z" fill="#7AF0DF"/>
<path d="M66.5732 114H66.0732C65.7971 114 65.5732 114.224 65.5732 114.5V124C65.5732 124.276 65.7971 124.5 66.0732 124.5H66.5732C66.8494 124.5 67.0732 124.276 67.0732 124V114.5C67.0732 114.224 66.8494 114 66.5732 114Z" fill="#7AF0DF"/>
<path fill-rule="evenodd" clip-rule="evenodd" d="M41.2669 108.227L69.668 114.268C69.668 115.106 70.1983 116.026 68.9708 116.45L61.8499 118.716C60.4543 119.125 57.8607 119.133 56.1041 118.737L28.8793 111.957C27.64 111.606 28.0734 110.436 28.0734 109.782L36.7788 108.358C38.0629 107.939 40.0498 107.878 41.2669 108.227Z" fill="#7AF0DF"/>
<path fill-rule="evenodd" clip-rule="evenodd" d="M41.2668 106.727L68.0282 113.467C69.7557 113.86 70.1981 114.526 68.9706 114.95L61.8497 117.216C60.4541 117.625 57.8605 117.633 56.1039 117.237L28.8791 110.457C27.6398 110.106 27.8622 109.498 29.3241 109.094L36.7787 106.858C38.0627 106.439 40.0496 106.378 41.2668 106.727Z" fill="#E1FFFB"/>
<path fill-rule="evenodd" clip-rule="evenodd" d="M35.9897 109.019L32.7883 108.055C32.2595 107.895 31.7017 108.195 31.5425 108.724C31.5143 108.817 31.5 108.915 31.5 109.012V117.927C31.5 118.349 31.7647 118.726 32.1617 118.868L35.3631 120.019C35.8828 120.206 36.4556 119.936 36.6424 119.416C36.6814 119.308 36.7014 119.193 36.7014 119.078V109.976C36.7014 109.535 36.4122 109.146 35.9897 109.019Z" fill="#F5FFFE"/>
<path fill-rule="evenodd" clip-rule="evenodd" d="M43.4018 117.205L36.7012 115.601V119.333L37.5825 119.667L39.4015 119.333L41.7887 118.438L43.4018 117.205Z" fill="#C0FFF6"/>
<path d="M36.7015 109.75C36.9879 109.75 37.226 109.956 37.2754 110.228L37.2848 110.333V118.784C37.2848 119.083 37.4459 119.167 38.1995 119.037C39.191 118.865 40.7418 118.24 42.8224 117.162C43.1085 117.014 43.4605 117.126 43.6087 117.412C43.7569 117.698 43.6452 118.05 43.3592 118.198C41.1803 119.327 39.5364 119.99 38.3981 120.186C37.0875 120.413 36.2053 119.999 36.1243 118.946L36.1182 118.784V110.333C36.1182 110.011 36.3793 109.75 36.7015 109.75Z" fill="#80F5E5"/>
<path d="M37.1764 126.333C38.7873 126.333 40.0931 125.811 40.0931 125.167C40.0931 124.522 38.7873 124 37.1764 124C35.5656 124 34.2598 124.522 34.2598 125.167C34.2598 125.811 35.5656 126.333 37.1764 126.333Z" fill="#7AF0DF"/>
<path fill-rule="evenodd" clip-rule="evenodd" d="M49 89.0146L66 91.3483C67.1046 91.5255 68 92.5668 68 93.6714V99.6714C68 100.776 67.1046 101.482 66 101.25L49 98.0847C47.8954 97.9046 47 96.9574 47 95.9664V90.5831C47 89.5921 47.8954 88.8886 49 89.0146Z" fill="#A9FFF3" fill-opacity="0.4"/>
<path fill-rule="evenodd" clip-rule="evenodd" d="M51 88.0146L68 90.3483C69.1046 90.5255 70 91.5668 70 92.6714V98.6714C70 99.776 69.1046 100.482 68 100.25L51 97.0847C49.8954 96.9046 49 95.9574 49 94.9664V89.5831C49 88.5921 49.8954 87.8886 51 88.0146Z" fill="#A9FFF3" fill-opacity="0.4"/>
<path fill-rule="evenodd" clip-rule="evenodd" d="M53 92.1813V97.1813L52 97V92L53 92.1813ZM55 93.5439V97.5439L54 97.3626V93.3626L55 93.5439ZM57 95.9065V97.9065L56 97.7252V95.7252L57 95.9065ZM59 95.269V98.269L58 98.0877V95.0877L59 95.269Z" fill="white" fill-opacity="0.6"/>
<path d="M164.242 129.824L167.951 118.627H168.021L171.73 129.824H164.242ZM174.824 139H178.92L169.604 113.371H166.352L157.035 139H161.148L163.117 133.27H172.838L174.824 139ZM184.791 139H187.814L194.512 120.754H190.609L186.338 133.533H186.268L181.979 120.754H178.094L184.791 139ZM206.254 139H209.928V126.537C209.904 124.311 209.207 122.74 207.836 121.826C206.465 120.936 204.631 120.502 202.334 120.525C199.615 120.479 197.559 121.369 196.164 123.197L199.047 125.395C199.363 124.867 199.797 124.492 200.348 124.27C200.875 124.082 201.596 123.988 202.51 123.988C205.029 123.941 206.277 124.721 206.254 126.326V128.242H201.174C199.229 128.266 197.752 128.793 196.744 129.824C195.736 130.832 195.232 132.104 195.232 133.639C195.232 135.244 195.812 136.562 196.973 137.594C198.074 138.648 199.645 139.188 201.684 139.211C202.926 139.211 203.898 139.059 204.602 138.754C205.316 138.461 205.844 138.004 206.184 137.383H206.254V139ZM206.254 132.584C206.254 133.955 205.967 134.834 205.393 135.221C204.76 135.607 203.676 135.789 202.141 135.766C200.922 135.766 200.049 135.525 199.521 135.045C198.971 134.611 198.695 134.084 198.695 133.463C198.672 132.045 199.727 131.312 201.859 131.266H206.254V132.584ZM214.779 139H218.453V120.754H214.779V139ZM214.779 117.045H218.453V113.371H214.779V117.045ZM223.322 134.57C223.322 136.176 223.779 137.318 224.693 137.998C225.561 138.666 226.662 139 227.998 139H229.633V135.537H228.367C227.453 135.537 226.996 135.121 226.996 134.289V113.371H223.322V134.57ZM242.184 139H245.857V126.537C245.834 124.311 245.137 122.74 243.766 121.826C242.395 120.936 240.561 120.502 238.264 120.525C235.545 120.479 233.488 121.369 232.094 123.197L234.977 125.395C235.293 124.867 235.727 124.492 236.277 124.27C236.805 124.082 237.525 123.988 238.439 123.988C240.959 123.941 242.207 124.721 242.184 126.326V128.242H237.104C235.158 128.266 233.682 128.793 232.674 129.824C231.666 130.832 231.162 132.104 231.162 133.639C231.162 135.244 231.742 136.562 232.902 137.594C234.004 138.648 235.574 139.188 237.613 139.211C238.855 139.211 239.828 139.059 240.531 138.754C241.246 138.461 241.773 138.004 242.113 137.383H242.184V139ZM242.184 132.584C242.184 133.955 241.896 134.834 241.322 135.221C240.689 135.607 239.605 135.789 238.07 135.766C236.852 135.766 235.979 135.525 235.451 135.045C234.9 134.611 234.625 134.084 234.625 133.463C234.602 132.045 235.656 131.312 237.789 131.266H242.184V132.584ZM250.604 139H254.277V137.084C255.496 138.455 257.066 139.164 258.988 139.211C260.125 139.188 261.098 138.959 261.906 138.525C262.727 138.104 263.389 137.541 263.893 136.838C264.396 136.264 264.742 135.484 264.93 134.5C265.105 133.562 265.193 132.016 265.193 129.859C265.193 127.668 265.105 126.109 264.93 125.184C264.742 124.246 264.396 123.49 263.893 122.916C262.861 121.381 261.227 120.584 258.988 120.525C258.051 120.525 257.213 120.719 256.475 121.105C255.678 121.516 254.945 122.043 254.277 122.688V113.371H250.604V139ZM257.881 124.199C258.748 124.199 259.434 124.346 259.938 124.639C260.441 124.955 260.799 125.389 261.01 125.939C261.244 126.49 261.402 127.088 261.484 127.732C261.508 128.424 261.52 129.133 261.52 129.859C261.52 130.551 261.508 131.225 261.484 131.881C261.402 132.572 261.244 133.193 261.01 133.744C260.799 134.271 260.441 134.705 259.938 135.045C259.434 135.373 258.748 135.537 257.881 135.537C257.061 135.537 256.41 135.361 255.93 135.01C255.426 134.67 255.057 134.225 254.822 133.674C254.6 133.123 254.453 132.508 254.383 131.828C254.312 131.16 254.277 130.504 254.277 129.859C254.277 129.156 254.312 128.482 254.383 127.838C254.453 127.193 254.6 126.596 254.822 126.045C255.057 125.494 255.426 125.049 255.93 124.709C256.41 124.369 257.061 124.199 257.881 124.199ZM269.307 134.57C269.307 136.176 269.764 137.318 270.678 137.998C271.545 138.666 272.646 139 273.982 139H275.617V135.537H274.352C273.438 135.537 272.98 135.121 272.98 134.289V113.371H269.307V134.57ZM292.738 131.266V128.242C292.715 125.84 291.971 123.953 290.506 122.582C289.064 121.234 287.301 120.549 285.215 120.525C284.348 120.525 283.469 120.684 282.578 121C281.676 121.316 280.861 121.832 280.135 122.547C279.42 123.25 278.834 124.211 278.377 125.43C277.92 126.625 277.691 128.125 277.691 129.93C277.691 131.805 277.955 133.328 278.482 134.5C278.963 135.719 279.59 136.668 280.363 137.348C280.762 137.676 281.189 137.951 281.646 138.174C282.08 138.432 282.525 138.637 282.982 138.789C283.896 139.07 284.834 139.211 285.795 139.211C288.314 139.234 290.506 138.25 292.369 136.258L289.715 133.99C288.543 135.174 287.213 135.766 285.725 135.766C284.447 135.766 283.416 135.379 282.631 134.605C281.787 133.844 281.365 132.73 281.365 131.266H292.738ZM281.365 128.242C281.436 126.824 281.816 125.752 282.508 125.025C283.211 124.334 284.113 123.988 285.215 123.988C286.316 123.988 287.219 124.334 287.922 125.025C288.637 125.752 289.018 126.824 289.064 128.242H281.365Z" fill="#9FFFF1" fill-opacity="0.1"/>
<path d="M201 90H161C159.895 90 159 90.8954 159 92V100C159 101.105 159.895 102 161 102H201C202.105 102 203 101.105 203 100V92C203 90.8954 202.105 90 201 90Z" fill="#CEFFF8" fill-opacity="0.7"/>
<path d="M163.273 98H164.191L164.703 96.4766H166.859L167.367 98H168.289L166.254 92.3633H165.309L163.273 98ZM165.746 93.3516H165.812L166.625 95.7734H164.938L165.746 93.3516ZM169.809 98H170.711L172.242 93.7578H171.352L170.297 97.1406H170.23L169.172 93.7578H168.273L169.809 98ZM174.109 98.0703C174.672 98.0703 175.117 97.8281 175.367 97.3984H175.434V98H176.273V95.0977C176.273 94.207 175.672 93.6758 174.605 93.6758C173.641 93.6758 172.973 94.1406 172.871 94.8359L172.867 94.8633H173.684L173.688 94.8477C173.789 94.5469 174.098 94.375 174.566 94.375C175.141 94.375 175.434 94.6328 175.434 95.0977V95.4727L174.285 95.5391C173.273 95.6016 172.703 96.043 172.703 96.8008V96.8086C172.703 97.5781 173.301 98.0703 174.109 98.0703ZM173.547 96.7734V96.7656C173.547 96.3828 173.812 96.1719 174.398 96.1367L175.434 96.0703V96.4336C175.434 96.9805 174.969 97.3945 174.336 97.3945C173.879 97.3945 173.547 97.1641 173.547 96.7734ZM177.91 93C178.199 93 178.441 92.7617 178.441 92.4727C178.441 92.1797 178.199 91.9414 177.91 91.9414C177.617 91.9414 177.379 92.1797 177.379 92.4727C177.379 92.7617 177.617 93 177.91 93ZM177.484 98H178.328V93.7578H177.484V98ZM179.602 98H180.449V92.0938H179.602V98ZM182.875 98.0703C183.438 98.0703 183.883 97.8281 184.133 97.3984H184.199V98H185.039V95.0977C185.039 94.207 184.438 93.6758 183.371 93.6758C182.406 93.6758 181.738 94.1406 181.637 94.8359L181.633 94.8633H182.449L182.453 94.8477C182.555 94.5469 182.863 94.375 183.332 94.375C183.906 94.375 184.199 94.6328 184.199 95.0977V95.4727L183.051 95.5391C182.039 95.6016 181.469 96.043 181.469 96.8008V96.8086C181.469 97.5781 182.066 98.0703 182.875 98.0703ZM182.312 96.7734V96.7656C182.312 96.3828 182.578 96.1719 183.164 96.1367L184.199 96.0703V96.4336C184.199 96.9805 183.734 97.3945 183.102 97.3945C182.645 97.3945 182.312 97.1641 182.312 96.7734ZM188.488 98.0703C189.559 98.0703 190.246 97.2148 190.246 95.8828V95.875C190.246 94.5312 189.566 93.6836 188.488 93.6836C187.906 93.6836 187.41 93.9727 187.184 94.4297H187.121V92.0938H186.273V98H187.121V97.332H187.184C187.43 97.7969 187.895 98.0703 188.488 98.0703ZM188.25 97.3477C187.543 97.3477 187.105 96.7891 187.105 95.8828V95.875C187.105 94.9688 187.543 94.4102 188.25 94.4102C188.957 94.4102 189.383 94.9648 189.383 95.875V95.8828C189.383 96.793 188.957 97.3477 188.25 97.3477ZM191.297 98H192.145V92.0938H191.297V98ZM195.188 98.082C196.273 98.082 196.859 97.457 197 96.8984L197.008 96.8633L196.191 96.8672L196.176 96.8984C196.074 97.1172 195.75 97.3867 195.207 97.3867C194.508 97.3867 194.062 96.9141 194.047 96.1016H197.055V95.8047C197.055 94.5312 196.328 93.6758 195.145 93.6758C193.961 93.6758 193.195 94.5625 193.195 95.8867V95.8906C193.195 97.2344 193.945 98.082 195.188 98.082ZM195.148 94.3711C195.723 94.3711 196.148 94.7383 196.215 95.4961H194.059C194.133 94.7656 194.57 94.3711 195.148 94.3711Z" fill="#1DCFB5"/>
<path d="M215.568 180.683L209.707 170.445L227.27 161.659L233.122 171.897L215.568 180.683Z" fill="#FFCC9F"/>
<path d="M210.442 167.512L218.659 181.121C218.659 181.121 215.858 183.138 218.005 187.719C220.152 192.301 219.332 196.051 216.492 198.244L200.195 171.272C203.479 169.684 206.911 168.425 210.442 167.512Z" fill="white"/>
<path d="M200.663 172.978L216.656 200.204L214.768 201.379L198.774 174.153L200.663 172.978Z" fill="#070924"/>
<path d="M206.573 168.976C206.573 168.976 209.683 173.95 204.585 176.293" stroke="#070924" stroke-width="0.81"/>
<path d="M248.912 84.0977C248.912 84.0977 258.919 123.513 260.387 131.291C261.854 139.069 264.807 154.605 258.618 160.207C252.429 165.81 228.689 179.22 228.689 179.22L219.951 162.671L234.06 153.731L248.912 84.0977Z" fill="#823F17"/>
<path d="M236.99 207.024H225.805L227.79 186.537H238.975L236.99 207.024Z" fill="#FFCC9F"/>
<path d="M223.475 204.098H238.98C238.98 204.098 239.237 207.388 244.141 207.892C249.045 208.397 251.774 210.93 252.146 214.342H221.415C221.754 210.869 222.444 207.437 223.475 204.098Z" fill="white"/>
<path d="M252.146 214.342H221.415V217.268H252.146V214.342Z" fill="#070924"/>
<path d="M222.878 208.488C222.878 208.488 228.732 209.129 228.732 214.341" stroke="#070924" stroke-width="0.81"/>
<path d="M240.439 207.024C240.439 207.024 239.463 207.024 237.512 208.488" stroke="#070924" stroke-width="0.81" stroke-linecap="round" stroke-linejoin="round"/>
<path d="M243.366 207.024C242.23 207.117 241.178 207.643 240.439 208.488" stroke="#070924" stroke-width="0.81" stroke-linecap="round" stroke-linejoin="round"/>
<path d="M252.146 97.5476L248.694 84.0977L229.571 84.2064C220.009 90.7534 223.499 112.174 223.499 112.174C224.637 123.726 227.668 134.327 227.879 143.822L222.916 195.317H240.71L249.22 149.656C249.583 147.568 249.747 145.448 249.708 143.327L249.039 104.411L252.146 97.5476Z" fill="#9D5327"/>
<path d="M249.063 68.4843L262.827 75.9629C265.39 76.9781 268.337 76.2342 270.187 74.1053C272.794 71.1114 274.213 68.6651 271.047 66.4092L256.128 56.1253L249.063 68.4843Z" fill="#FFCC9F"/>
<path d="M236.256 65.422C240.755 69.3854 245.912 72.5345 251.493 74.7276L258.512 57.7589L242.818 49.7674L236.256 65.422Z" fill="#5E95E2"/>
<path d="M263.866 68.8196L277.69 39L283.951 39.9735L274.011 73.2589C272.989 75.4143 270.881 76.8554 268.492 77.0308C266.104 77.2062 263.806 76.0886 262.477 74.1059C261.186 72.1685 262.81 70.9419 263.866 68.8196Z" fill="#FFCC9F"/>
<path d="M276.251 48.3805L273.652 43.2498C273.072 42.4123 272.867 41.3814 273.085 40.394L274.678 36.1539C274.811 35.6771 275.164 35.2872 275.634 35.0978C276.103 34.9084 276.637 34.9409 277.078 35.1859C277.515 35.4356 277.781 35.8936 277.775 36.3862L277.586 39.2904L279.04 41.3524L287.634 41.2266C287.634 41.2266 287.634 45.2053 282.605 48.8742L279.239 49.61L276.251 48.3612V48.3805Z" fill="#FFCC9F"/>
<path d="M290.544 26.1654L286.946 45.1417C286.854 45.6544 286.394 46.0053 285.894 45.9443L276.756 44.775C276.497 44.7388 276.263 44.5944 276.109 44.3755C275.956 44.1565 275.895 43.882 275.942 43.6157L279.511 24.788C279.612 24.2916 280.058 23.9538 280.545 24.0051L289.712 24.9961C289.976 25.0271 290.216 25.1708 290.374 25.3927C290.532 25.6145 290.594 25.8945 290.544 26.1654Z" fill="#13223D"/>
<path d="M286.894 27.1884L284.397 43.1422C284.35 43.517 284.055 43.7851 283.723 43.7538L277.255 43.2251C277.071 43.2115 276.901 43.1078 276.789 42.9408C276.677 42.7738 276.634 42.56 276.672 42.3544L279.505 26.0585C279.569 25.6846 279.874 25.4283 280.207 25.4676L286.338 26.3487C286.511 26.3716 286.669 26.4743 286.774 26.633C286.879 26.7917 286.922 26.9924 286.894 27.1884Z" fill="#FDD793"/>
<path d="M236.894 48.9758C236.894 48.9758 247.842 51.2548 250.518 60.7186C251.332 63.6156 248.862 83.9916 248.862 83.9916L230.147 84.0978C230.147 84.0978 226.993 77.5408 223.597 71.1286C220.2 64.7165 220.059 54.992 228.35 51.8149L236.894 48.9758Z" fill="#5E95E2"/>
<path d="M251.182 69.4635C251.182 69.4635 252.586 60.7283 248.488 56.2927" stroke="#4580D2" stroke-width="1.07"/>
<path d="M222.032 83.9L217.832 119.22L212.089 118.601C212.089 118.601 210.175 91.637 211.872 82.0721C212.298 79.7493 213.866 77.8524 215.974 77.1106C218.082 76.3688 220.402 76.8976 222.041 78.4937C223.674 80.0315 222.494 81.6079 222.032 83.9Z" fill="#FFCC9F"/>
<path d="M219.895 123.829C220.068 124.539 219.834 125.283 219.279 125.788C218.97 126.089 218.52 126.22 218.085 126.136C217.651 126.052 217.291 125.765 217.131 125.374L216.793 124.667C215.968 125.223 214.804 126.711 215.799 131.419C215.965 132.188 215.555 132.966 214.804 133.302C214.274 133.501 213.67 133.285 213.412 132.803C213.407 132.778 213.407 132.752 213.412 132.728C213.293 133.193 212.956 133.581 212.498 133.782C211.967 133.977 211.367 133.762 211.106 133.283C211.063 133.217 211.027 133.148 210.996 133.076C210.849 133.257 210.653 133.396 210.429 133.481C209.899 133.68 209.295 133.464 209.037 132.982C208.954 132.837 208.894 132.682 208.858 132.52C208.864 132.461 208.864 132.401 208.858 132.341H208.799C208.268 132.541 207.665 132.325 207.407 131.842C207.316 131.7 207.252 131.544 207.218 131.381C206.956 130.194 206.81 128.987 206.78 127.775V127.728C206.78 127.2 206.78 126.711 206.85 126.23C206.999 123.98 210.28 121.033 211.881 117.756L218.175 118.359L219.895 123.829Z" fill="#FFCC9F"/>
<path d="M218.488 65.0732L213.366 77.5123C212.346 80.181 211.358 82.5125 213.52 84.3843C216.582 87.0111 219.074 88.3794 221.366 85.1035L229.463 69.7623L218.488 65.0732Z" fill="#FFCC9F"/>
<path d="M226.25 54.0977C226.25 54.0977 218.88 58.9617 214.829 70.4715L228.335 77.5123L236.78 65.8579L226.25 54.0977Z" fill="#5E95E2"/>
<path d="M225.805 75.3171L231.658 65.0732" stroke="#4580D2" stroke-width="1.07"/>
<path d="M217.35 23.8271C221.284 25.8865 225.844 24.9574 227.532 21.7293C229.219 18.5012 227.394 14.2304 223.456 12.1579C219.518 10.0854 214.957 11.0363 213.274 14.2557C211.591 17.475 213.408 21.7633 217.35 23.8271Z" fill="#DF7658"/>
<path d="M223.007 24.1618C223.852 26.8607 226.725 28.3634 229.424 27.5186C232.123 26.6737 233.627 23.8012 232.783 21.1019C231.939 18.4025 229.067 16.8982 226.367 17.7415C225.07 18.1468 223.987 19.0511 223.356 20.2553C222.726 21.4595 222.6 22.8648 223.007 24.1618Z" fill="white"/>
<path d="M244.704 16.6463C244.704 16.6463 250.116 17.5011 250.17 24.6084C250.17 24.6084 250.157 29.7559 250.081 37.1595C250.083 39.026 249.264 40.8339 247.856 42.0717C246.448 43.3096 244.604 43.8428 242.846 43.5204C240.322 43.0137 237.964 41.932 235.938 40.3519L232.893 37.3389C225.838 28.9188 233.033 15.1741 243.908 16.5353L244.704 16.6463Z" fill="#FFCC9F"/>
<path d="M249.102 30.9727L251.71 33.9201C252.219 34.3725 252.022 35.3955 251.531 35.459L248.913 35.8041L249.102 30.9727Z" fill="#EABA8F"/>
<path d="M236.501 28.3167C236.501 28.3167 235.228 11.9844 248.864 18.5448C248.864 18.5448 242.628 9.02555 230.185 14.8382C227.328 16.3788 225.159 19.0739 224.215 22.2558C222.497 29.2609 227.713 30.4467 229.252 38.104C229.252 38.104 232.786 37.4036 234.13 32.3657C234.77 30.9327 235.566 29.5737 236.501 28.3167Z" fill="#DF7658"/>
<path d="M243.57 20.763C240.448 31.4718 237.021 32.2082 237.021 32.2082L235.885 21.4541L243.57 20.763Z" fill="#DF7658"/>
<path d="M247.245 27.5347C247.245 27.5347 249.007 27.0074 248.968 27.9584C248.968 27.9584 248.931 28.5956 247.407 29.0169C245.882 29.4382 245.485 29.3617 245.387 28.7823C245.289 28.2028 246.418 27.7186 247.245 27.5347Z" fill="#1A3430"/>
<path d="M248.261 36.0441C248.374 36.1574 248.374 36.3411 248.26 36.4542C248.107 36.6073 247.84 36.7963 247.47 36.9322C246.615 37.2465 245.662 37.082 244.694 36.2483C244.572 36.1437 244.559 35.9606 244.663 35.8393C244.768 35.7179 244.951 35.7042 245.072 35.8088C245.88 36.5039 246.611 36.6301 247.27 36.3878C247.551 36.2846 247.752 36.1423 247.851 36.0437C247.948 35.9467 248.097 35.933 248.209 36.0024L248.261 36.0441Z" fill="#1A3430"/>
<path d="M239.917 13.5394C239.917 13.5394 249.695 10.4159 251.733 22.5851L236.011 23.4814L239.917 13.5394Z" fill="#DF7658"/>
<path d="M230.415 29.5402C230.278 31.0144 231.044 32.4254 232.354 33.1146C233.664 33.8038 235.26 33.6353 236.398 32.6878C237.536 31.7404 237.99 30.2007 237.549 28.7873C237.109 27.374 235.86 26.3658 234.385 26.2331C232.377 26.0524 230.6 27.5317 230.415 29.5402Z" fill="#EABA8F"/>
<path d="M247.065 31.8028C246.989 32.1953 247.242 32.577 247.634 32.6598C248.025 32.7425 248.411 32.4957 248.499 32.1057C248.587 31.7156 248.345 31.3267 247.956 31.2326C247.762 31.1882 247.558 31.2235 247.391 31.3308C247.223 31.4381 247.106 31.6082 247.065 31.8028Z" fill="#1A3430"/>
<path d="M232.928 31.7396C231.74 31.0004 231.553 29.9939 232.041 28.9691C232.207 28.621 232.408 28.3506 232.562 28.1884C232.672 28.072 232.855 28.0667 232.972 28.1767C233.088 28.2867 233.093 28.4702 232.983 28.5867C232.868 28.7086 232.7 28.9335 232.565 29.2186C232.194 29.9965 232.321 30.6788 233.234 31.2471C233.37 31.3317 233.412 31.5105 233.327 31.6465C233.243 31.7825 233.064 31.8242 232.928 31.7396Z" fill="#1A3430"/>
<path d="M242.349 42.1417L240.5 54.3751L230.548 51.3615L233.207 33.9177L242.349 42.1417Z" fill="#FFCC9F"/>
<path d="M240.617 49.2978C240.667 49.0985 237.773 42.5559 237.773 42.5559L241.693 43.668L240.617 49.2978Z" fill="#5E2B0F" fill-opacity="0.2"/>
<path d="M233.847 49.2262L229.463 51.7521L242.595 54.8293C243.116 53.8269 238.211 47.5122 238.211 47.5122L233.847 49.2262Z" fill="#FFCC9F"/>
<path d="M80.6548 160.902H79.2268V160.58C79.2268 160.253 79.1475 159.973 78.9888 159.74C78.8395 159.497 78.5828 159.376 78.2188 159.376C78.0228 159.376 77.8641 159.413 77.7428 159.488C77.6215 159.563 77.5235 159.656 77.4488 159.768C77.3741 159.889 77.3228 160.029 77.2948 160.188C77.2668 160.337 77.2528 160.496 77.2528 160.664C77.2528 160.86 77.2575 161.023 77.2668 161.154C77.2855 161.285 77.3228 161.401 77.3788 161.504C77.4348 161.607 77.5141 161.695 77.6168 161.77C77.7288 161.845 77.8781 161.919 78.0648 161.994L79.1568 162.428C79.4741 162.549 79.7308 162.694 79.9268 162.862C80.1228 163.021 80.2768 163.207 80.3888 163.422C80.4915 163.646 80.5615 163.903 80.5988 164.192C80.6361 164.472 80.6548 164.794 80.6548 165.158C80.6548 165.578 80.6128 165.97 80.5288 166.334C80.4448 166.689 80.3095 166.992 80.1228 167.244C79.9268 167.505 79.6701 167.711 79.3528 167.86C79.0355 168.009 78.6481 168.084 78.1908 168.084C77.8455 168.084 77.5235 168.023 77.2248 167.902C76.9261 167.781 76.6695 167.613 76.4548 167.398C76.2401 167.183 76.0675 166.936 75.9368 166.656C75.8155 166.367 75.7548 166.054 75.7548 165.718V165.186H77.1828V165.634C77.1828 165.895 77.2575 166.133 77.4068 166.348C77.5655 166.553 77.8268 166.656 78.1908 166.656C78.4335 166.656 78.6201 166.623 78.7508 166.558C78.8908 166.483 78.9981 166.381 79.0728 166.25C79.1475 166.119 79.1895 165.965 79.1988 165.788C79.2175 165.601 79.2268 165.396 79.2268 165.172C79.2268 164.911 79.2175 164.696 79.1988 164.528C79.1801 164.36 79.1428 164.225 79.0868 164.122C79.0215 164.019 78.9328 163.935 78.8208 163.87C78.7181 163.805 78.5781 163.735 78.4008 163.66L77.3788 163.24C76.7628 162.988 76.3475 162.657 76.1328 162.246C75.9275 161.826 75.8248 161.303 75.8248 160.678C75.8248 160.305 75.8761 159.95 75.9788 159.614C76.0815 159.278 76.2355 158.989 76.4408 158.746C76.6368 158.503 76.8841 158.312 77.1828 158.172C77.4908 158.023 77.8548 157.948 78.2748 157.948C78.6295 157.948 78.9515 158.013 79.2408 158.144C79.5395 158.275 79.7961 158.447 80.0108 158.662C80.4401 159.11 80.6548 159.623 80.6548 160.202V160.902ZM81.6383 168V158.032H83.0663V161.588H83.0943C83.2436 161.364 83.421 161.182 83.6263 161.042C83.841 160.893 84.1116 160.818 84.4383 160.818C84.6156 160.818 84.793 160.851 84.9703 160.916C85.1476 160.972 85.3063 161.07 85.4463 161.21C85.5863 161.35 85.6983 161.532 85.7823 161.756C85.8663 161.971 85.9083 162.237 85.9083 162.554V168H84.4803V163.086C84.4803 162.825 84.4196 162.619 84.2983 162.47C84.177 162.321 84.0043 162.246 83.7803 162.246C83.5096 162.246 83.323 162.33 83.2203 162.498C83.1176 162.666 83.0663 162.909 83.0663 163.226V168H81.6383ZM86.9537 163.282C86.9537 162.993 86.9724 162.727 87.0097 162.484C87.047 162.241 87.117 162.027 87.2197 161.84C87.3877 161.532 87.6257 161.285 87.9337 161.098C88.251 160.911 88.6337 160.818 89.0817 160.818C89.5297 160.818 89.9077 160.911 90.2157 161.098C90.533 161.285 90.7757 161.532 90.9437 161.84C91.0464 162.027 91.1164 162.241 91.1537 162.484C91.191 162.727 91.2097 162.993 91.2097 163.282V165.62C91.2097 165.909 91.191 166.175 91.1537 166.418C91.1164 166.661 91.0464 166.875 90.9437 167.062C90.7757 167.37 90.533 167.617 90.2157 167.804C89.9077 167.991 89.5297 168.084 89.0817 168.084C88.6337 168.084 88.251 167.991 87.9337 167.804C87.6257 167.617 87.3877 167.37 87.2197 167.062C87.117 166.875 87.047 166.661 87.0097 166.418C86.9724 166.175 86.9537 165.909 86.9537 165.62V163.282ZM88.3817 165.844C88.3817 166.115 88.4424 166.32 88.5637 166.46C88.6944 166.591 88.867 166.656 89.0817 166.656C89.2964 166.656 89.4644 166.591 89.5857 166.46C89.7164 166.32 89.7817 166.115 89.7817 165.844V163.058C89.7817 162.787 89.7164 162.587 89.5857 162.456C89.4644 162.316 89.2964 162.246 89.0817 162.246C88.867 162.246 88.6944 162.316 88.5637 162.456C88.4424 162.587 88.3817 162.787 88.3817 163.058V165.844ZM99.0813 160.902L97.4013 168H96.1413L95.3573 163.786H95.3293L94.5453 168H93.2853L91.6053 160.902H93.1173L93.9853 165.312H94.0133L94.8113 160.902H95.9313L96.6873 165.312H96.7153L97.5693 160.902H99.0813ZM103.795 159.376V162.484H104.607C104.859 162.484 105.059 162.451 105.209 162.386C105.358 162.311 105.475 162.209 105.559 162.078C105.633 161.947 105.685 161.789 105.713 161.602C105.741 161.406 105.755 161.182 105.755 160.93C105.755 160.678 105.741 160.459 105.713 160.272C105.685 160.076 105.629 159.908 105.545 159.768C105.367 159.507 105.031 159.376 104.537 159.376H103.795ZM102.367 168V158.032H104.663C106.343 158.032 107.183 159.007 107.183 160.958C107.183 161.546 107.089 162.045 106.903 162.456C106.725 162.867 106.408 163.198 105.951 163.45L107.491 168H105.979L104.649 163.744H103.795V168H102.367ZM112.374 164.99H109.546V165.956C109.546 166.18 109.606 166.353 109.728 166.474C109.858 166.595 110.031 166.656 110.246 166.656C110.516 166.656 110.694 166.577 110.778 166.418C110.871 166.259 110.927 166.101 110.946 165.942H112.374C112.374 166.567 112.182 167.071 111.8 167.454C111.613 167.65 111.389 167.804 111.128 167.916C110.866 168.028 110.572 168.084 110.246 168.084C109.798 168.084 109.415 167.991 109.098 167.804C108.79 167.617 108.552 167.37 108.384 167.062C108.281 166.875 108.211 166.661 108.174 166.418C108.136 166.175 108.118 165.909 108.118 165.62V163.282C108.118 162.993 108.136 162.727 108.174 162.484C108.211 162.241 108.281 162.027 108.384 161.84C108.552 161.532 108.79 161.285 109.098 161.098C109.415 160.911 109.798 160.818 110.246 160.818C110.572 160.818 110.866 160.874 111.128 160.986C111.398 161.098 111.627 161.252 111.814 161.448C112.187 161.868 112.374 162.395 112.374 163.03V164.99ZM109.546 163.87H110.946V163.058C110.946 162.787 110.88 162.587 110.75 162.456C110.628 162.316 110.46 162.246 110.246 162.246C110.031 162.246 109.858 162.316 109.728 162.456C109.606 162.587 109.546 162.787 109.546 163.058V163.87ZM116.127 168V167.272H116.099C115.913 167.533 115.721 167.734 115.525 167.874C115.339 168.014 115.073 168.084 114.727 168.084C114.559 168.084 114.387 168.056 114.209 168C114.041 167.953 113.878 167.86 113.719 167.72C113.561 167.589 113.43 167.403 113.327 167.16C113.234 166.908 113.187 166.586 113.187 166.194C113.187 165.793 113.22 165.443 113.285 165.144C113.351 164.836 113.472 164.579 113.649 164.374C113.817 164.178 114.046 164.033 114.335 163.94C114.625 163.837 114.993 163.786 115.441 163.786C115.488 163.786 115.539 163.786 115.595 163.786C115.651 163.786 115.703 163.791 115.749 163.8C115.796 163.809 115.852 163.814 115.917 163.814C115.983 163.814 116.053 163.819 116.127 163.828V163.086C116.127 162.843 116.076 162.643 115.973 162.484C115.871 162.325 115.684 162.246 115.413 162.246C115.227 162.246 115.054 162.307 114.895 162.428C114.746 162.549 114.648 162.727 114.601 162.96H113.215C113.253 162.325 113.467 161.812 113.859 161.42C114.046 161.233 114.27 161.089 114.531 160.986C114.793 160.874 115.087 160.818 115.413 160.818C115.712 160.818 115.992 160.865 116.253 160.958C116.515 161.051 116.743 161.191 116.939 161.378C117.126 161.565 117.275 161.798 117.387 162.078C117.499 162.358 117.555 162.685 117.555 163.058V168H116.127ZM116.127 164.948C115.969 164.92 115.838 164.906 115.735 164.906C115.427 164.906 115.161 164.981 114.937 165.13C114.723 165.27 114.615 165.531 114.615 165.914C114.615 166.185 114.681 166.404 114.811 166.572C114.942 166.74 115.124 166.824 115.357 166.824C115.6 166.824 115.787 166.745 115.917 166.586C116.057 166.427 116.127 166.203 116.127 165.914V164.948ZM118.523 158.032H119.951V165.998C119.951 166.269 119.998 166.455 120.091 166.558C120.194 166.651 120.38 166.712 120.651 166.74V168.084C120.324 168.084 120.03 168.056 119.769 168C119.508 167.953 119.284 167.855 119.097 167.706C118.91 167.566 118.766 167.37 118.663 167.118C118.57 166.857 118.523 166.516 118.523 166.096V158.032ZM121.233 164.836V163.408H125.447V164.836H121.233ZM126.646 160.902V158.746H128.074V160.902H128.956V162.022H128.074V165.956C128.074 166.124 128.088 166.255 128.116 166.348C128.153 166.441 128.209 166.511 128.284 166.558C128.359 166.605 128.447 166.633 128.55 166.642C128.662 166.651 128.797 166.656 128.956 166.656V168H128.368C128.041 168 127.766 167.949 127.542 167.846C127.327 167.743 127.155 167.613 127.024 167.454C126.893 167.295 126.795 167.118 126.73 166.922C126.674 166.717 126.646 166.521 126.646 166.334V162.022H125.932V160.902H126.646ZM129.504 168V160.902H130.932V168H129.504ZM129.504 159.46V158.032H130.932V159.46H129.504ZM132.101 168V160.902H133.529V161.588H133.557C133.707 161.364 133.884 161.182 134.089 161.042C134.304 160.893 134.575 160.818 134.901 160.818C135.209 160.818 135.466 160.893 135.671 161.042C135.877 161.191 136.045 161.355 136.175 161.532C136.353 161.336 136.549 161.168 136.763 161.028C136.978 160.888 137.277 160.818 137.659 160.818C137.837 160.818 138.019 160.851 138.205 160.916C138.392 160.972 138.56 161.07 138.709 161.21C138.859 161.35 138.98 161.532 139.073 161.756C139.167 161.971 139.213 162.237 139.213 162.554V168H137.785V163.086C137.785 162.825 137.725 162.619 137.603 162.47C137.482 162.321 137.309 162.246 137.085 162.246C136.815 162.246 136.628 162.33 136.525 162.498C136.423 162.666 136.371 162.909 136.371 163.226V168H134.943V163.086C134.943 162.825 134.883 162.619 134.761 162.47C134.64 162.321 134.467 162.246 134.243 162.246C133.973 162.246 133.786 162.33 133.683 162.498C133.581 162.666 133.529 162.909 133.529 163.226V168H132.101ZM144.516 164.99H141.688V165.956C141.688 166.18 141.749 166.353 141.87 166.474C142.001 166.595 142.174 166.656 142.388 166.656C142.659 166.656 142.836 166.577 142.92 166.418C143.014 166.259 143.07 166.101 143.088 165.942H144.516C144.516 166.567 144.325 167.071 143.942 167.454C143.756 167.65 143.532 167.804 143.27 167.916C143.009 168.028 142.715 168.084 142.388 168.084C141.94 168.084 141.558 167.991 141.24 167.804C140.932 167.617 140.694 167.37 140.526 167.062C140.424 166.875 140.354 166.661 140.316 166.418C140.279 166.175 140.26 165.909 140.26 165.62V163.282C140.26 162.993 140.279 162.727 140.316 162.484C140.354 162.241 140.424 162.027 140.526 161.84C140.694 161.532 140.932 161.285 141.24 161.098C141.558 160.911 141.94 160.818 142.388 160.818C142.715 160.818 143.009 160.874 143.27 160.986C143.541 161.098 143.77 161.252 143.956 161.448C144.33 161.868 144.516 162.395 144.516 163.03V164.99ZM141.688 163.87H143.088V163.058C143.088 162.787 143.023 162.587 142.892 162.456C142.771 162.316 142.603 162.246 142.388 162.246C142.174 162.246 142.001 162.316 141.87 162.456C141.749 162.587 141.688 162.787 141.688 163.058V163.87ZM152.87 160.902H151.442V160.58C151.442 160.253 151.362 159.973 151.204 159.74C151.054 159.497 150.798 159.376 150.434 159.376C150.238 159.376 150.079 159.413 149.958 159.488C149.836 159.563 149.738 159.656 149.664 159.768C149.589 159.889 149.538 160.029 149.51 160.188C149.482 160.337 149.468 160.496 149.468 160.664C149.468 160.86 149.472 161.023 149.482 161.154C149.5 161.285 149.538 161.401 149.594 161.504C149.65 161.607 149.729 161.695 149.832 161.77C149.944 161.845 150.093 161.919 150.28 161.994L151.372 162.428C151.689 162.549 151.946 162.694 152.142 162.862C152.338 163.021 152.492 163.207 152.604 163.422C152.706 163.646 152.776 163.903 152.814 164.192C152.851 164.472 152.87 164.794 152.87 165.158C152.87 165.578 152.828 165.97 152.744 166.334C152.66 166.689 152.524 166.992 152.338 167.244C152.142 167.505 151.885 167.711 151.568 167.86C151.25 168.009 150.863 168.084 150.406 168.084C150.06 168.084 149.738 168.023 149.44 167.902C149.141 167.781 148.884 167.613 148.67 167.398C148.455 167.183 148.282 166.936 148.152 166.656C148.03 166.367 147.97 166.054 147.97 165.718V165.186H149.398V165.634C149.398 165.895 149.472 166.133 149.622 166.348C149.78 166.553 150.042 166.656 150.406 166.656C150.648 166.656 150.835 166.623 150.966 166.558C151.106 166.483 151.213 166.381 151.288 166.25C151.362 166.119 151.404 165.965 151.414 165.788C151.432 165.601 151.442 165.396 151.442 165.172C151.442 164.911 151.432 164.696 151.414 164.528C151.395 164.36 151.358 164.225 151.302 164.122C151.236 164.019 151.148 163.935 151.036 163.87C150.933 163.805 150.793 163.735 150.616 163.66L149.594 163.24C148.978 162.988 148.562 162.657 148.348 162.246C148.142 161.826 148.04 161.303 148.04 160.678C148.04 160.305 148.091 159.95 148.194 159.614C148.296 159.278 148.45 158.989 148.656 158.746C148.852 158.503 149.099 158.312 149.398 158.172C149.706 158.023 150.07 157.948 150.49 157.948C150.844 157.948 151.166 158.013 151.456 158.144C151.754 158.275 152.011 158.447 152.226 158.662C152.655 159.11 152.87 159.623 152.87 160.202V160.902ZM153.853 160.902V158.746H155.281V160.902H156.163V162.022H155.281V165.956C155.281 166.124 155.295 166.255 155.323 166.348C155.36 166.441 155.416 166.511 155.491 166.558C155.566 166.605 155.654 166.633 155.757 166.642C155.869 166.651 156.004 166.656 156.163 166.656V168H155.575C155.248 168 154.973 167.949 154.749 167.846C154.534 167.743 154.362 167.613 154.231 167.454C154.1 167.295 154.002 167.118 153.937 166.922C153.881 166.717 153.853 166.521 153.853 166.334V162.022H153.139V160.902H153.853ZM159.413 168V167.272H159.385C159.198 167.533 159.007 167.734 158.811 167.874C158.624 168.014 158.358 168.084 158.013 168.084C157.845 168.084 157.672 168.056 157.495 168C157.327 167.953 157.163 167.86 157.005 167.72C156.846 167.589 156.715 167.403 156.613 167.16C156.519 166.908 156.473 166.586 156.473 166.194C156.473 165.793 156.505 165.443 156.571 165.144C156.636 164.836 156.757 164.579 156.935 164.374C157.103 164.178 157.331 164.033 157.621 163.94C157.91 163.837 158.279 163.786 158.727 163.786C158.773 163.786 158.825 163.786 158.881 163.786C158.937 163.786 158.988 163.791 159.035 163.8C159.081 163.809 159.137 163.814 159.203 163.814C159.268 163.814 159.338 163.819 159.413 163.828V163.086C159.413 162.843 159.361 162.643 159.259 162.484C159.156 162.325 158.969 162.246 158.699 162.246C158.512 162.246 158.339 162.307 158.181 162.428C158.031 162.549 157.933 162.727 157.887 162.96H156.501C156.538 162.325 156.753 161.812 157.145 161.42C157.331 161.233 157.555 161.089 157.817 160.986C158.078 160.874 158.372 160.818 158.699 160.818C158.997 160.818 159.277 160.865 159.539 160.958C159.8 161.051 160.029 161.191 160.225 161.378C160.411 161.565 160.561 161.798 160.673 162.078C160.785 162.358 160.841 162.685 160.841 163.058V168H159.413ZM159.413 164.948C159.254 164.92 159.123 164.906 159.021 164.906C158.713 164.906 158.447 164.981 158.223 165.13C158.008 165.27 157.901 165.531 157.901 165.914C157.901 166.185 157.966 166.404 158.097 166.572C158.227 166.74 158.409 166.824 158.643 166.824C158.885 166.824 159.072 166.745 159.203 166.586C159.343 166.427 159.413 166.203 159.413 165.914V164.948ZM161.892 160.902V158.746H163.32V160.902H164.202V162.022H163.32V165.956C163.32 166.124 163.334 166.255 163.362 166.348C163.4 166.441 163.456 166.511 163.53 166.558C163.605 166.605 163.694 166.633 163.796 166.642C163.908 166.651 164.044 166.656 164.202 166.656V168H163.614C163.288 168 163.012 167.949 162.788 167.846C162.574 167.743 162.401 167.613 162.27 167.454C162.14 167.295 162.042 167.118 161.976 166.922C161.92 166.717 161.892 166.521 161.892 166.334V162.022H161.178V160.902H161.892ZM169.02 160.902V168H167.592V167.314H167.564C167.414 167.538 167.232 167.725 167.018 167.874C166.812 168.014 166.546 168.084 166.22 168.084C166.042 168.084 165.865 168.056 165.688 168C165.51 167.935 165.352 167.832 165.212 167.692C165.072 167.552 164.96 167.375 164.876 167.16C164.792 166.936 164.75 166.665 164.75 166.348V160.902H166.178V165.816C166.178 166.077 166.238 166.283 166.36 166.432C166.481 166.581 166.654 166.656 166.878 166.656C167.148 166.656 167.335 166.572 167.438 166.404C167.54 166.236 167.592 165.993 167.592 165.676V160.902H169.02ZM172.781 162.89C172.772 162.647 172.692 162.465 172.543 162.344C172.403 162.223 172.24 162.162 172.053 162.162C171.829 162.162 171.656 162.237 171.535 162.386C171.414 162.526 171.353 162.689 171.353 162.876C171.353 163.007 171.386 163.137 171.451 163.268C171.516 163.389 171.684 163.501 171.955 163.604L172.795 163.94C173.327 164.145 173.691 164.425 173.887 164.78C174.092 165.135 174.195 165.522 174.195 165.942C174.195 166.241 174.139 166.521 174.027 166.782C173.924 167.034 173.78 167.258 173.593 167.454C173.406 167.65 173.182 167.804 172.921 167.916C172.66 168.028 172.375 168.084 172.067 168.084C171.488 168.084 171.003 167.902 170.611 167.538C170.415 167.361 170.256 167.141 170.135 166.88C170.014 166.609 169.948 166.297 169.939 165.942H171.283C171.311 166.138 171.376 166.32 171.479 166.488C171.591 166.656 171.782 166.74 172.053 166.74C172.258 166.74 172.44 166.675 172.599 166.544C172.767 166.404 172.851 166.213 172.851 165.97C172.851 165.774 172.8 165.606 172.697 165.466C172.594 165.326 172.408 165.205 172.137 165.102L171.451 164.85C171.003 164.682 170.648 164.435 170.387 164.108C170.135 163.772 170.009 163.366 170.009 162.89C170.009 162.591 170.065 162.316 170.177 162.064C170.289 161.803 170.443 161.579 170.639 161.392C170.826 161.205 171.045 161.065 171.297 160.972C171.549 160.869 171.82 160.818 172.109 160.818C172.398 160.818 172.664 160.869 172.907 160.972C173.159 161.075 173.374 161.219 173.551 161.406C173.728 161.593 173.868 161.817 173.971 162.078C174.074 162.33 174.125 162.601 174.125 162.89H172.781Z" fill="#0CBBA1"/>
<defs>
<filter id="filter0_d" x="-5" y="59" width="302" height="100" filterUnits="userSpaceOnUse" color-interpolation-filters="sRGB">
<feFlood flood-opacity="0" result="BackgroundImageFix"/>
<feColorMatrix in="SourceAlpha" type="matrix" values="0 0 0 0 0 0 0 0 0 0 0 0 0 0 0 0 0 0 127 0"/>
<feOffset dy="2"/>
<feGaussianBlur stdDeviation="5"/>
<feColorMatrix type="matrix" values="0 0 0 0 0.364803 0 0 0 0 0.409551 0 0 0 0 0.424791 0 0 0 0.1 0"/>
<feBlend mode="normal" in2="BackgroundImageFix" result="effect1_dropShadow"/>
<feBlend mode="normal" in="SourceGraphic" in2="effect1_dropShadow" result="shape"/>
</filter>
<linearGradient id="paint0_linear" x1="155" y1="16.9207" x2="155" y2="223.109" gradientUnits="userSpaceOnUse">
<stop stop-color="#DCFFF8"/>
<stop offset="1" stop-color="#B0FFF8"/>
</linearGradient>
<linearGradient id="paint1_linear" x1="55.9586" y1="142.833" x2="-68.0658" y2="8" gradientUnits="userSpaceOnUse">
<stop stop-color="#3CD9C2"/>
<stop offset="1" stop-color="#22ECCF"/>
</linearGradient>
<radialGradient id="paint2_radial" cx="0" cy="0" r="1" gradientUnits="userSpaceOnUse" gradientTransform="translate(-2.78899 96.9999) rotate(90) scale(24.7909 15.1524)">
<stop stop-color="#42FFE3"/>
<stop offset="1" stop-color="white"/>
</radialGradient>
<radialGradient id="paint3_radial" cx="0" cy="0" r="1" gradientUnits="userSpaceOnUse" gradientTransform="translate(5.28554 104.25) rotate(90) scale(4.70017 18.5152)">
<stop stop-color="#42FFE3"/>
<stop offset="1" stop-color="#A5F59E"/>
</radialGradient>
<radialGradient id="paint4_radial" cx="0" cy="0" r="1" gradientUnits="userSpaceOnUse" gradientTransform="translate(-6.5047 108.915) rotate(90) scale(2.81922 5.5002)">
<stop stop-color="#42FFE3"/>
<stop offset="1" stop-color="white"/>
</radialGradient>
<radialGradient id="paint5_radial" cx="0" cy="0" r="1" gradientUnits="userSpaceOnUse" gradientTransform="translate(-5.45585 103.857) rotate(90) scale(3.23604 8.8756)">
<stop stop-color="#42FFE3"/>
<stop offset="1" stop-color="#A5F59E"/>
</radialGradient>
<radialGradient id="paint6_radial" cx="0" cy="0" r="1" gradientUnits="userSpaceOnUse" gradientTransform="translate(1.60791 106.105) rotate(90) scale(4.18197 15.4186)">
<stop stop-color="#42FFE3"/>
<stop offset="1" stop-color="white"/>
</radialGradient>
<linearGradient id="paint7_linear" x1="51.6007" y1="103" x2="51.6007" y2="109.901" gradientUnits="userSpaceOnUse">
<stop stop-color="#FBFFFF"/>
<stop offset="1" stop-color="#ADF6EB"/>
</linearGradient>
</defs>
</svg>
